<?xml version="1.0" encoding="utf-8" ?>
<svg xmlns="http://www.w3.org/2000/svg" xmlns:xlink="http://www.w3.org/1999/xlink" width="3840" height="2272">
	<path fill="#0B97D6" d="M2141.48 1196.78C2144.8 1190.11 2163.81 1192.21 2173.39 1192.4C2254.02 1193.94 2335.11 1191.96 2415.76 1191.56C2443.03 1191.42 2470.34 1193.34 2497.53 1193C2507.57 1192.87 2522.66 1192.81 2532.06 1190.67C2538.61 1189.17 2536.74 1182.61 2545.87 1178.66C2544.76 1184.75 2543.55 1190.76 2541.74 1196.8C2453.31 1199.12 2364.81 1197.6 2276.35 1197.71C2232.96 1197.76 2184.2 1201.53 2141.48 1196.78Z"/>
	<path fill="#0AA2CC" fill-opacity="0.98431373" d="M3761.36 939.662C3767.21 940.374 3767.35 940.01 3770.59 942.912C3771.59 948.747 3767.62 957.384 3775.95 961.471C3776.36 961.674 3776.85 961.816 3777.31 961.988L3776.84 963.629C3775.41 968.793 3774.77 973.796 3775.17 979.026C3775.7 986.183 3784.24 1016.25 3777.87 1019.73C3764.27 1013 3762.19 989.501 3751.92 979.495L3750.05 977.632C3745.98 971.408 3751.56 972.333 3750.16 966.102C3751.08 966.141 3752 966.223 3752.92 966.219C3755.98 966.206 3757.99 966.378 3759.87 964.838C3767.24 958.767 3762.77 946.781 3761.36 939.662Z"/>
	<path fill="#0B97D6" fill-opacity="0.98431373" d="M3729.54 1024.02C3720 1002.5 3720.71 970.771 3722.61 948.295C3723.29 940.314 3724.83 931.724 3735.8 926.251C3740.69 923.811 3745.92 922.974 3752.31 923.467C3759.42 924.015 3766.34 927.454 3770.43 930.748C3781.91 940 3780.44 951.325 3777.31 961.988C3776.85 961.816 3776.36 961.674 3775.95 961.471C3767.62 957.384 3771.59 948.747 3770.59 942.912C3767.35 940.01 3767.21 940.374 3761.36 939.662C3762.77 946.781 3767.24 958.767 3759.87 964.838C3757.99 966.378 3755.98 966.206 3752.92 966.219C3752 966.223 3751.08 966.141 3750.16 966.102C3751.56 972.333 3745.98 971.408 3750.05 977.632L3740.59 974.864C3737.52 977.126 3738.77 980.746 3738.65 983.662C3738.06 997.342 3735.61 1010.79 3729.54 1024.02ZM3737.24 960.667C3742 962.101 3747.53 963.198 3750.16 966.102C3751.08 966.141 3752 966.223 3752.92 966.219C3755.98 966.206 3757.99 966.378 3759.87 964.838C3767.24 958.767 3762.77 946.781 3761.36 939.662C3755.91 938.017 3752.78 937.325 3746.69 937.112C3741.6 938.397 3740.63 938.542 3738.4 941.756C3735.13 946.482 3737.13 955.495 3737.24 960.667Z"/>
	<path fill="#0B97D6" d="M3823.01 955.865C3829.13 958.034 3830.32 958.719 3832.15 962.814C3835.94 971.288 3833.96 980.292 3836 988.883C3834.63 1006.86 3816.7 1032.55 3794.1 1044.61C3781.35 1051.41 3764.82 1055.79 3747.43 1055.01C3729.39 1054.21 3713.96 1048.2 3702.62 1040.13C3696.26 1035.6 3690.65 1030.34 3686.86 1024.9L3695.62 1026.37L3696.89 1024.99C3695.43 1021.37 3695.15 1018.73 3695.73 1015.01L3695.94 1013.84C3702.57 1020.85 3709.44 1026.84 3720.17 1031.98C3731.25 1037.27 3744.76 1040.1 3759.04 1038.81C3775.98 1037.29 3788.76 1030.14 3798.19 1022.09C3819.02 1004.32 3829.37 977.056 3823.01 955.865Z"/>
	<path fill="#0AA2CC" d="M3686.86 1024.9Q3685.9 1023.66 3684.99 1022.41Q3684.07 1021.15 3683.2 1019.89Q3682.33 1018.63 3681.51 1017.35Q3680.68 1016.08 3679.9 1014.79Q3679.12 1013.51 3678.38 1012.21Q3677.65 1010.92 3676.96 1009.62Q3676.27 1008.32 3675.62 1007.01Q3674.98 1005.7 3674.38 1004.38Q3673.78 1003.06 3673.23 1001.73Q3672.68 1000.41 3672.18 999.078Q3671.67 997.746 3671.21 996.409Q3670.76 995.071 3670.34 993.728Q3669.93 992.385 3669.57 991.037Q3669.21 989.69 3668.89 988.338Q3668.57 986.986 3668.31 985.631Q3668.04 984.275 3667.82 982.917Q3667.6 981.558 3667.42 980.197Q3667.25 978.836 3667.12 977.474Q3667 976.111 3666.92 974.747Q3666.84 973.383 3666.81 972.018Q3666.78 970.654 3666.8 969.289Q3666.82 967.924 3666.89 966.56Q3666.95 965.196 3667.07 963.833Q3667.18 962.47 3667.34 961.109Q3667.51 959.747 3667.72 958.388Q3667.93 957.029 3668.18 955.673Q3668.44 954.317 3668.75 952.964Q3669.05 951.611 3669.4 950.262Q3669.76 948.914 3670.16 947.57Q3670.56 946.226 3671 944.887Q3671.45 943.548 3671.95 942.215Q3672.44 940.882 3672.98 939.555C3680.87 920.358 3697.64 897.098 3728.06 886.857C3739.56 882.985 3752.27 881.761 3765.05 884.003C3812.02 892.241 3818.86 922.275 3838.53 943.972L3840 945.564L3840 985.378L3836 988.883C3833.96 980.292 3835.94 971.288 3832.15 962.814C3830.32 958.719 3829.13 958.034 3823.01 955.865C3815.15 938.01 3800.89 912.731 3772.55 902.933C3763.18 899.692 3752.35 898.472 3741.83 900.34C3722.99 903.687 3709.4 913.651 3700.86 923.68C3678.19 950.313 3678.04 982.146 3693.67 1010.02Q3694.74 1011.94 3695.94 1013.84L3695.73 1015.01C3695.15 1018.73 3695.43 1021.37 3696.89 1024.99L3695.62 1026.37L3686.86 1024.9Z"/>
	<path fill="#0AA2CC" d="M3110.69 655.576Q3174.59 654.694 3238.41 656.876C3228.11 702.01 3204.4 753.259 3188.54 798.506Q3177.12 829.919 3167.1 861.5C3162.19 877.521 3158.82 894.288 3151.61 909.964C3150.73 912.847 3150.29 916.832 3146.74 919.037C3137.52 924.767 3059.33 922.371 3041.61 922.167L3082.82 753.897C3090.54 721.665 3093.26 686.493 3110.69 655.576Z"/>
	<path fill="#0AA2CC" d="M1447.47 868.007C1457.73 867.754 1468.03 868.032 1478.28 868.173Q1480.6 933.268 1480.22 998.377C1421.56 999.281 1376.43 1004.01 1333.47 1029.36Q1330.81 1030.92 1328.25 1032.54Q1325.69 1034.16 1323.23 1035.83Q1320.77 1037.51 1318.41 1039.23Q1316.05 1040.95 1313.79 1042.72Q1311.54 1044.49 1309.39 1046.31Q1307.24 1048.12 1305.2 1049.98Q1303.16 1051.85 1301.24 1053.75Q1299.31 1055.65 1297.5 1057.59Q1295.69 1059.53 1294 1061.51Q1292.31 1063.49 1290.74 1065.5Q1289.16 1067.51 1287.71 1069.56Q1286.26 1071.6 1284.93 1073.68Q1283.6 1075.75 1282.4 1077.85Q1281.2 1079.95 1280.12 1082.07Q1279.05 1084.2 1278.1 1086.34Q1277.15 1088.49 1276.33 1090.65C1259.54 1133.05 1267.54 1188.15 1267.68 1232.26L1267.21 1432.55C1221.5 1435.71 1175.71 1435.42 1129.8 1434.94C1127.2 1404.06 1128.91 1372.66 1128.68 1341.72Q1128.99 1110.78 1124.01 879.857C1163.75 878.664 1205.14 878.503 1244.85 879.993C1249.55 912.679 1243.62 946.223 1247.76 979.029C1248.11 981.799 1247.99 983.77 1251.58 985.712C1257.98 980.3 1260.28 972.749 1264.07 966.552C1271.46 954.467 1279.74 942.266 1291.27 931.326C1327.16 897.28 1382.46 877.07 1447.47 868.007Z"/>
	<path fill="#0AA2CC" d="M2928.84 870.21Q2937.34 869.757 2945.86 869.408C2956.35 868.994 2967.37 868.342 2975.77 872.712C2986.11 887.842 2979.89 977.415 2979.18 1000.35C2967.52 1000.16 2955.86 999.233 2944.18 999.013C2901.08 998.201 2865.97 1011.29 2835.63 1028.31C2807.37 1044.16 2788.65 1062.89 2778.83 1085.18C2757.75 1133.02 2766.81 1193.83 2767.22 1243.13Q2768.55 1337.96 2765.32 1432.77C2720.78 1437.24 2674.03 1435.61 2629.01 1435.4C2627.32 1412.38 2628.43 1388.97 2628.27 1365.92L2623.94 880.234Q2683.39 879.335 2742.86 879.527C2746.63 899.308 2740.89 970.247 2748.92 980.73L2752.38 981.259C2754.24 980.476 2754.74 980.383 2756.22 979.112C2760.05 975.815 2761.83 969.092 2764.31 965.168C2771.08 954.439 2778.41 943.774 2788.06 933.825C2818.05 902.934 2870.91 879.534 2928.84 870.21Z"/>
	<path fill="#0AA2CC" d="M0 1110.04C0.427019 1109.34 0.870275 1108.64 1.28106 1107.93C9.07778 1094.57 11.9525 1070.17 17.9565 1054.37C42.6132 989.461 95.27 916.943 200.217 885.077C242.653 872.191 296.108 864.367 342.837 873.352C400.338 884.408 464.543 924.573 491.664 955.497C466.271 987.601 428.521 1016.74 397.632 1047.11C370.99 1024.7 338.901 998.717 289.733 994.17C265.907 991.967 242.215 995.262 222.794 1003.73C171.419 1026.15 153.535 1071.42 145.6 1106.57C132.761 1163.43 138.106 1247.45 198.806 1294.11C220.12 1310.5 252.984 1325.58 288.437 1328.61C311.365 1330.58 331.703 1325.62 349.539 1317.34C370.329 1307.7 385.965 1294.75 399.545 1281.5C415.091 1296.67 429.584 1312.21 445.071 1327.4C460.702 1342.74 479.153 1358.34 490.986 1374.81C453.724 1407.58 390.681 1436.22 324.282 1443.82C268.204 1450.24 207.047 1438.33 160.694 1419.75C80.9794 1387.81 34.736 1321.81 17.677 1267.54C13.6579 1254.75 8.3325 1218.14 0 1208.98L0 1110.04Z"/>
	<path fill="#0AA2CC" d="M1664.2 727.855C1708.41 725.637 1755.26 728.024 1799.4 730.042L1799.99 879.607C1847.08 882.431 1895.45 881.159 1942.73 880.725C1943.62 915.466 1943.82 950.776 1941.65 985.489C1895.16 987.767 1846.76 986.666 1800.01 987.095L1798.69 1156.52C1798.5 1194.24 1796.06 1233.01 1802.07 1270.57C1804.92 1288.37 1808.64 1313.01 1834.59 1324.89C1860.1 1336.56 1916.37 1330.61 1946.79 1328.89C1949.75 1361.89 1948.18 1395.4 1948.3 1428.45C1947.38 1429.67 1946.8 1430.62 1945.27 1431.68C1930.4 1442.09 1864.43 1447.8 1842.06 1448.15C1801.78 1448.78 1767.4 1440.34 1738.48 1423.73C1705.89 1405 1689.02 1378.13 1679.46 1352.39C1660.38 1301.04 1664.69 1248.27 1664.09 1196.05L1662.91 986.503Q1608.59 987.289 1554.25 986.834C1551.89 952.671 1553.71 918.106 1554.37 883.912C1590.94 882.232 1627.6 881.313 1664.16 879.471C1665.56 863.193 1664.51 846.562 1664.55 830.233L1664.2 727.855Z"/>
	<path fill="#0AA2CC" d="M3410.41 869.062C3424.95 868.616 3439.72 869.138 3453.84 871.332C3519.96 881.609 3565.57 920.272 3598.15 953.184C3572.18 978.863 3544.69 1004.94 3515.39 1029.31C3489.08 1009.92 3457.38 985.809 3413.5 980.836C3395.47 978.792 3377.45 979.762 3362.09 986.056C3345.09 993.025 3337.27 1003.85 3334.3 1015.73C3320.52 1070.88 3426.21 1094.22 3487.14 1119.33Q3491.82 1121.25 3496.37 1123.28Q3500.92 1125.31 3505.33 1127.44Q3509.74 1129.57 3514 1131.81Q3518.26 1134.04 3522.37 1136.38Q3526.47 1138.71 3530.42 1141.14Q3534.37 1143.57 3538.15 1146.09Q3541.93 1148.61 3545.53 1151.22Q3549.14 1153.83 3552.57 1156.52C3604.85 1197.76 3620.87 1253.23 3608.23 1303.53C3596.84 1348.82 3564.19 1393.1 3500.44 1420.9C3461.21 1438.01 3398.93 1449.59 3350.16 1445.2C3339.49 1444.46 3329.17 1443.46 3318.79 1441.78C3255.79 1431.55 3199.23 1397.55 3167.83 1364.76C3192.79 1337.92 3225.05 1313.18 3248.05 1285.8C3263.66 1298.09 3276.95 1310.79 3295.95 1321.48C3318.38 1334.11 3351.26 1345.63 3383.29 1344.66C3402.04 1344.08 3421.93 1337.46 3433.9 1328.96C3454.5 1314.32 3460.65 1293.15 3457.79 1274.65C3449.31 1219.76 3349.83 1205.26 3288.36 1175.06C3228.51 1145.66 3193.73 1102.24 3187.2 1056.68C3180.18 1007.66 3201.19 952.997 3256.15 914.962Q3257.95 913.718 3259.81 912.5Q3261.66 911.282 3263.56 910.092Q3265.47 908.902 3267.42 907.74Q3269.38 906.578 3271.38 905.445Q3273.38 904.313 3275.43 903.209Q3277.48 902.106 3279.57 901.033Q3281.67 899.961 3283.8 898.919Q3285.94 897.877 3288.12 896.867Q3290.3 895.857 3292.53 894.879Q3294.75 893.901 3297.01 892.956Q3299.28 892.011 3301.58 891.099Q3303.88 890.188 3306.22 889.31Q3308.56 888.432 3310.94 887.589Q3313.31 886.746 3315.72 885.938Q3318.13 885.131 3320.57 884.358Q3323.02 883.586 3325.49 882.849Q3327.97 882.113 3330.47 881.413Q3332.98 880.713 3335.51 880.05Q3338.04 879.388 3340.6 878.762Q3343.16 878.136 3345.75 877.548Q3348.33 876.96 3350.94 876.411Q3353.55 875.861 3356.19 875.349Q3358.82 874.838 3361.47 874.365Q3364.12 873.892 3366.79 873.459Q3369.46 873.025 3372.15 872.631Q3374.84 872.236 3377.55 871.881Q3380.25 871.526 3382.97 871.211Q3385.69 870.896 3388.42 870.621Q3391.15 870.345 3393.89 870.11Q3396.63 869.875 3399.38 869.68Q3402.13 869.485 3404.89 869.331Q3407.65 869.176 3410.41 869.062Z"/>
	<path fill="#0AA2CC" d="M781.645 869.047Q785.823 868.809 790.013 868.671C839.831 867.066 894.844 879.389 931.466 899.23C979.351 925.173 1002.81 964.364 1015.19 1001.11C1034.44 1058.24 1028.56 1118.37 1028.54 1176.35C1028.52 1261.6 1026.72 1347.48 1033.91 1432.65C991.532 1435.04 949.729 1435.71 907.178 1435.5C903.473 1414.98 903.308 1394.52 894.715 1374.4C863.233 1396.17 856.121 1412.08 811.748 1429.07C777.324 1442.24 737.466 1449.3 696.725 1443.9C647.597 1437.4 616.034 1417.15 590.278 1392.83C568.017 1370.66 555.702 1344.84 550.073 1319.41C537.059 1260.61 548.222 1191.58 611.476 1143.43C686.03 1086.67 775.66 1078.89 888.368 1070.76C883.513 1041.33 878.225 1005.04 838.125 984.078C819.669 974.428 796.58 970.744 772.246 971.651C713.853 973.826 669.596 1005 633.14 1028.7C620.098 1015.06 579.203 973.547 577.818 960.159C576.672 949.076 596.139 936.292 607.234 928.234C653.738 894.458 707.629 873.605 781.645 869.047ZM850.751 1185.26C807.018 1187.26 749.972 1185.99 718.623 1207.25C690.898 1226.06 684.934 1254.59 688.526 1278.56C691.675 1299.56 703.771 1324.31 732.546 1338.18C734.624 1339.18 736.771 1340.11 738.941 1341.04C757.577 1346.54 775.352 1347.68 795.475 1343.67C826.291 1337.52 851.491 1319.28 864.9 1302.3C886.736 1274.66 888.598 1243.85 889.225 1213.89C889.369 1206.98 891.197 1196.91 886.72 1190.47C884.796 1187.7 882.827 1186.5 878.061 1185.48C870.612 1183.89 858.662 1184.89 850.751 1185.26Z"/>
	<path fill="#0AA2CC" d="M2526.16 1335.37C2514.56 1362.43 2481.29 1391.19 2447.48 1410.31C2405.25 1434.17 2352.22 1445.87 2293.91 1444.85Q2290.68 1444.78 2287.45 1444.67Q2284.22 1444.56 2280.99 1444.4Q2277.77 1444.23 2274.56 1444.03Q2271.34 1443.82 2268.13 1443.56Q2264.93 1443.31 2261.73 1443Q2258.54 1442.7 2255.36 1442.35Q2252.18 1442 2249.01 1441.6Q2245.85 1441.21 2242.7 1440.76Q2239.55 1440.32 2236.43 1439.83Q2233.3 1439.34 2230.19 1438.81Q2227.09 1438.27 2224 1437.69Q2220.92 1437.11 2217.87 1436.48Q2214.81 1435.86 2211.78 1435.19Q2208.75 1434.52 2205.75 1433.8Q2202.75 1433.08 2199.78 1432.33Q2196.81 1431.57 2193.87 1430.76Q2190.93 1429.96 2188.03 1429.11Q2185.13 1428.27 2182.26 1427.38Q2179.4 1426.49 2176.57 1425.56Q2173.74 1424.63 2170.96 1423.66Q2168.17 1422.69 2165.42 1421.68Q2162.68 1420.66 2159.98 1419.61Q2157.27 1418.56 2154.62 1417.47Q2151.96 1416.38 2149.35 1415.24Q2146.74 1414.11 2144.18 1412.94Q2141.62 1411.78 2139.1 1410.57Q2136.59 1409.36 2134.13 1408.12Q2131.67 1406.88 2129.27 1405.6Q2126.86 1404.32 2124.51 1403.01Q2122.15 1401.69 2119.86 1400.34Q2117.56 1399 2115.32 1397.62Q2113.08 1396.23 2110.9 1394.82C2009.04 1329.62 1987.71 1226.78 1993.69 1141.75C1999.56 1058.18 2036.05 960.059 2144.57 901.709Q2146.54 900.653 2148.55 899.626Q2150.56 898.599 2152.61 897.602Q2154.67 896.604 2156.76 895.638Q2158.85 894.671 2160.99 893.735Q2163.12 892.799 2165.3 891.895Q2167.47 890.991 2169.68 890.119Q2171.89 889.246 2174.13 888.407Q2176.38 887.567 2178.66 886.761Q2180.94 885.955 2183.25 885.182Q2185.57 884.409 2187.91 883.671Q2190.26 882.932 2192.63 882.228Q2195.01 881.524 2197.41 880.855Q2199.82 880.186 2202.25 879.553Q2204.68 878.919 2207.13 878.322Q2209.59 877.724 2212.07 877.162Q2214.55 876.601 2217.06 876.076Q2219.56 875.551 2222.09 875.063Q2224.61 874.574 2227.16 874.123Q2229.7 873.672 2232.26 873.259Q2234.83 872.845 2237.41 872.469Q2239.99 872.093 2242.58 871.755Q2245.17 871.417 2247.78 871.117Q2250.39 870.818 2253.01 870.556Q2255.63 870.294 2258.26 870.071Q2260.89 869.848 2263.53 869.663Q2266.16 869.479 2268.81 869.333Q2271.45 869.187 2274.1 869.08Q2276.75 868.973 2279.41 868.905Q2282.06 868.837 2284.72 868.807Q2287.37 868.778 2290.03 868.788Q2292.69 868.797 2295.34 868.846Q2298 868.895 2300.65 868.982C2354.59 870.598 2403.23 886.25 2438.87 909.91C2539.32 976.586 2553.62 1093.16 2545.87 1178.66C2536.74 1182.61 2538.61 1189.17 2532.06 1190.67C2522.66 1192.81 2507.57 1192.87 2497.53 1193C2470.34 1193.34 2443.03 1191.42 2415.76 1191.56C2335.11 1191.96 2254.02 1193.94 2173.39 1192.4C2163.81 1192.21 2144.8 1190.11 2141.48 1196.78L2139.06 1197.37C2133.94 1201.98 2138.31 1213.58 2139.78 1218.95C2150.15 1256.62 2170.07 1305.11 2225.44 1328.47C2249.82 1338.76 2284.04 1344.48 2313.66 1341.15C2352.48 1336.79 2384.07 1321.08 2403.15 1301.03C2411.36 1292.4 2417.7 1283.03 2427.07 1274.82C2427.42 1274.52 2427.77 1274.22 2428.13 1273.92C2460.63 1292.5 2497.36 1314.8 2526.16 1335.37ZM2261.61 965.441C2221.94 971.96 2201.63 983.742 2181.71 1004.66C2167.52 1019.57 2131.81 1074.27 2139.78 1090.76C2141.04 1093.37 2142.19 1094.6 2146.2 1096.05C2163.25 1102.2 2259.4 1098.8 2283.85 1098.58C2324.21 1098.97 2366.31 1100.58 2406.36 1097.4C2403.35 1059.01 2394.24 1007.29 2342.98 979.726C2323.87 969.452 2299.78 963.942 2273.94 964.854Q2267.76 965.058 2261.61 965.441Z"/>
</svg>
