<?xml version="1.0" encoding="utf-8" ?>
<svg xmlns="http://www.w3.org/2000/svg" xmlns:xlink="http://www.w3.org/1999/xlink" width="3840" height="2272">
	<path fill="#0B97D6" d="M2141.47 1196.8C2145.05 1189.6 2168.78 1192.48 2179.09 1192.54C2259.22 1193 2339.24 1191.75 2419.34 1191.54C2445.4 1191.47 2471.54 1193.36 2497.53 1192.99C2507.58 1192.85 2522.65 1192.81 2532.06 1190.67C2538.61 1189.17 2536.73 1182.61 2545.88 1178.66C2544.76 1184.74 2543.55 1190.76 2541.77 1196.8C2454.12 1199.1 2366.39 1197.61 2278.71 1197.75C2234.26 1197.82 2185.35 1201.7 2141.47 1196.8Z"/>
	<path fill="#0AA2CC" fill-opacity="0.98431373" d="M3761.35 939.64C3767.18 940.373 3767.36 940.015 3770.59 942.914C3771.59 948.757 3767.61 957.372 3775.94 961.469C3776.36 961.672 3776.84 961.813 3777.29 961.985L3776.83 963.608C3772.94 977.576 3784.18 1010.85 3778.2 1018.77C3762.49 1012.05 3764.16 987.407 3749.64 978.132C3749.35 976.669 3749.61 977.487 3748.42 975.461C3746.54 972.254 3751.65 970.857 3750.13 966.085C3751.06 966.125 3751.98 966.207 3752.9 966.204C3755.95 966.194 3757.98 966.374 3759.85 964.836C3767.25 958.745 3762.77 946.773 3761.35 939.64Z"/>
	<path fill="#0B97D6" fill-opacity="0.98431373" d="M3729.55 1024C3721.55 1005.86 3722.45 985.249 3722.17 966.572C3722 954.884 3718.99 935.544 3734.56 926.86C3739.26 924.237 3744.63 923.086 3751.13 923.394C3759.28 923.779 3767.11 927.755 3771.45 931.602C3781.93 940.87 3780.26 951.578 3777.29 961.985C3776.84 961.813 3776.36 961.672 3775.94 961.469C3767.61 957.372 3771.59 948.757 3770.59 942.914C3767.36 940.015 3767.18 940.373 3761.35 939.64C3762.77 946.773 3767.25 958.745 3759.85 964.836C3757.98 966.374 3755.95 966.194 3752.9 966.204C3751.98 966.207 3751.06 966.125 3750.13 966.085C3751.65 970.857 3746.54 972.254 3748.42 975.461C3749.61 977.487 3749.35 976.669 3749.64 978.132C3745.89 976.405 3744.6 975.657 3739.94 974.875C3737.57 979.757 3738.09 985.616 3737.58 990.699C3736.41 1002.21 3734.89 1012.86 3729.55 1024ZM3737.24 960.674C3741.97 962.102 3747.51 963.208 3750.13 966.085C3751.06 966.125 3751.98 966.207 3752.9 966.204C3755.95 966.194 3757.98 966.374 3759.85 964.836C3767.25 958.745 3762.77 946.773 3761.35 939.64C3755.91 938.011 3752.78 937.326 3746.7 937.122C3741.62 938.396 3740.63 938.541 3738.4 941.746C3735.12 946.454 3737.14 955.515 3737.24 960.674Z"/>
	<path fill="#0B97D6" d="M3823.01 955.99C3828.85 957.953 3830.16 958.422 3831.95 962.275C3835.96 970.93 3833.9 980.116 3835.99 988.899C3834.64 1006.87 3816.69 1032.55 3794.1 1044.61C3781.35 1051.41 3764.81 1055.79 3747.43 1055.01C3729.4 1054.2 3713.95 1048.2 3702.62 1040.13C3696.26 1035.6 3690.65 1030.34 3686.86 1024.89L3695.62 1026.37L3696.89 1024.99C3695.43 1021.37 3695.14 1018.73 3695.73 1015.02L3695.94 1013.85C3702.88 1021.11 3709.78 1027.22 3721.11 1032.43C3732.52 1037.67 3746.35 1040.19 3760.74 1038.65C3777.33 1036.88 3790.15 1029.2 3799.19 1021.24C3818.99 1003.81 3829.59 976.583 3823.01 955.99Z"/>
	<path fill="#0AA2CC" d="M3686.86 1024.89Q3685.88 1023.63 3684.95 1022.35Q3684.02 1021.08 3683.14 1019.79Q3682.25 1018.51 3681.42 1017.21Q3680.58 1015.91 3679.79 1014.6Q3678.99 1013.3 3678.25 1011.98Q3677.5 1010.66 3676.81 1009.34Q3676.11 1008.01 3675.46 1006.68Q3674.81 1005.34 3674.21 1004Q3673.6 1002.66 3673.05 1001.31Q3672.49 999.961 3671.99 998.605Q3671.48 997.249 3671.03 995.887Q3670.57 994.525 3670.16 993.157Q3669.75 991.79 3669.39 990.418Q3669.03 989.045 3668.72 987.669Q3668.41 986.293 3668.15 984.913Q3667.89 983.533 3667.68 982.15Q3667.47 980.767 3667.31 979.381Q3667.14 977.996 3667.03 976.609Q3666.92 975.222 3666.86 973.834Q3666.79 972.446 3666.78 971.057Q3666.77 969.669 3666.8 968.28Q3666.84 966.892 3666.93 965.504Q3667.01 964.116 3667.15 962.73Q3667.28 961.344 3667.47 959.96Q3667.65 958.576 3667.89 957.194Q3668.12 955.812 3668.41 954.434Q3668.69 953.055 3669.03 951.681Q3669.36 950.306 3669.74 948.936Q3670.12 947.566 3670.55 946.201Q3670.99 944.836 3671.47 943.477Q3671.95 942.118 3672.47 940.765Q3673 939.412 3673.58 938.066C3681.65 919.33 3698.35 896.855 3728.06 886.858C3739.56 882.989 3752.27 881.763 3765.05 884.004C3812.06 892.244 3818.82 922.278 3838.52 943.976L3840 945.569L3840 985.365L3835.99 988.899C3833.9 980.116 3835.96 970.93 3831.95 962.275C3830.16 958.422 3828.85 957.953 3823.01 955.99C3816.29 939.539 3800.86 912.665 3774.71 903.558C3763.82 899.761 3750.83 899.75 3738.94 901.807C3721.88 904.761 3709.93 912.603 3701.98 921.694C3678.09 949.003 3678.04 982.014 3694.08 1010.71C3694.67 1011.76 3695.31 1012.81 3695.94 1013.85L3695.73 1015.02C3695.14 1018.73 3695.43 1021.37 3696.89 1024.99L3695.62 1026.37L3686.86 1024.89Z"/>
	<path fill="#0AA2CC" d="M3110.69 655.576Q3174.6 654.696 3238.42 656.877C3233.97 676.43 3226 695.963 3218.89 715.24Q3203.03 757.299 3188.21 799.489Q3176.72 831.052 3166.72 862.792C3161.95 878.329 3158.68 894.764 3151.54 909.969C3150.29 913.97 3149.9 917.032 3144.82 919.954C3124.22 925.26 3066.59 922.455 3041.61 922.167L3082.81 753.958C3090.5 721.821 3093.05 686.334 3110.69 655.576Z"/>
	<path fill="#0AA2CC" d="M1447.46 867.988C1457.72 867.748 1468.01 868.018 1478.26 868.157Q1480.61 933.259 1480.23 998.376C1422.39 999.267 1377.45 1003.84 1334.73 1028.62C1305 1045.88 1285.39 1067.37 1276.06 1091.34C1259.64 1133.52 1267.52 1188.34 1267.67 1232.15L1267.21 1432.57C1221.42 1435.61 1175.79 1435.42 1129.8 1434.94C1127.35 1404.33 1128.93 1373.26 1128.72 1342.6Q1129.01 1111.22 1123.98 879.861C1163.75 878.649 1205.11 878.551 1244.86 879.987C1246.65 892.535 1245.6 905.616 1245.81 918.226Q1245.97 953.932 1248.95 989.595C1265.93 970.614 1272.76 949.484 1292.19 930.706C1327.3 896.763 1383.19 877.015 1447.46 867.988Z"/>
	<path fill="#0AA2CC" d="M2928.68 870.219C2943.16 869.36 2959.85 867.639 2973.43 871.343C2985.53 879.923 2980.38 981.914 2980.16 1000.32C2968.19 1000.11 2956.25 999.241 2944.27 999.011C2901.18 998.182 2865.95 1011.3 2835.62 1028.32C2806.86 1044.46 2788.09 1063.51 2778.37 1086.23C2757.66 1134.66 2766.82 1193.07 2767.2 1242.76Q2768.5 1337.77 2765.34 1432.77C2720.8 1437.24 2674.02 1435.61 2629 1435.4C2627.34 1413.83 2628.45 1391.96 2628.3 1370.36L2624.29 880.243C2663.76 879.729 2703.39 879.177 2742.86 879.549C2746.11 895.365 2741.32 975.001 2750.22 981.293C2758.12 979.232 2780.94 940.609 2788.5 932.905C2818.09 902.77 2872.18 879.348 2928.68 870.219Z"/>
	<path fill="#0AA2CC" d="M0 1110.04C0.427006 1109.34 0.870244 1108.64 1.28102 1107.93C9.07627 1094.57 11.9593 1070.17 17.958 1054.37C42.6189 989.408 95.4484 916.8 200.546 884.989C242.889 872.172 296.244 864.382 342.836 873.346C400.318 884.405 464.554 924.572 491.66 955.491C466.277 987.603 428.532 1016.77 397.625 1047.14C371.473 1025.02 339.222 999.108 290.998 994.307C266.93 991.911 243.029 995.027 223.261 1003.54C172.256 1025.51 154.106 1070.19 145.88 1104.91C132.333 1162.08 137.906 1247.14 198.713 1294.02C220.021 1310.45 254.121 1326.26 289.836 1328.88C313.051 1330.58 333.71 1324.97 351.361 1316.47C371.371 1306.85 386.125 1294.38 399.543 1281.5C414.964 1296.54 429.329 1311.96 444.697 1327.02C460.459 1342.48 479.065 1358.21 490.984 1374.81C453.515 1407.8 390.465 1436.21 323.727 1443.89C267.715 1450.33 205.551 1437.93 159.429 1419.22C80.1513 1387.06 34.2279 1321.11 17.5841 1266.78C13.6928 1254.08 8.25314 1218.24 0 1209.01L0 1110.04Z"/>
	<path fill="#0AA2CC" d="M1664.2 727.856C1708.4 725.624 1755.28 728.02 1799.42 730.039C1800.62 779.956 1799.86 829.951 1799.97 879.877C1846.93 882.747 1895.56 881.217 1942.73 880.738C1943.68 915.466 1943.82 950.789 1941.65 985.49C1895.14 987.733 1846.76 986.664 1800 987.096L1798.69 1163.74C1798.7 1199.26 1796.39 1235.79 1802.15 1271.14C1805 1288.68 1809.06 1313.22 1834.59 1324.89C1860.14 1336.57 1916.34 1330.61 1946.79 1328.89C1949.75 1361.88 1948.18 1395.4 1948.3 1428.45C1947.18 1429.75 1946.11 1431.11 1944.45 1432.22C1930 1441.85 1862.24 1448.13 1840.22 1448.28C1801.35 1448.54 1765.82 1439.62 1738.1 1423.58C1704.67 1404.23 1688.38 1376.89 1678.83 1350.38C1660.53 1299.57 1664.65 1247.67 1664.09 1196.05L1662.91 986.503Q1608.58 987.278 1554.24 986.839C1552.08 952.634 1553.71 918.115 1554.37 883.888C1590.96 882.278 1627.6 881.179 1664.19 879.485C1666 863.079 1664.56 846.041 1664.58 829.569L1664.2 727.856Z"/>
	<path fill="#0AA2CC" d="M3410.68 869.052C3423.29 868.482 3436.71 869.012 3449.06 870.674C3516.83 879.795 3563.44 919.007 3598.49 951.553C3587.51 968.28 3535.33 1012.39 3515.44 1029.35C3488.73 1009.64 3455.79 985.002 3411.04 980.31C3393.37 978.457 3375.04 980.197 3360.6 986.763C3344.73 993.977 3336.08 1005.66 3333.87 1017.21C3323.64 1070.71 3422.53 1093.49 3482.95 1117.81Q3487.6 1119.65 3492.12 1121.59Q3496.65 1123.54 3501.05 1125.58Q3505.44 1127.63 3509.71 1129.77Q3513.97 1131.91 3518.1 1134.15Q3522.22 1136.38 3526.2 1138.71Q3530.17 1141.04 3534 1143.45Q3537.82 1145.86 3541.49 1148.36Q3545.16 1150.86 3548.66 1153.44C3602.4 1193.64 3619.95 1248.33 3609.36 1298.46C3599.64 1344.49 3567.87 1390.09 3504.47 1419.12C3464.78 1437.29 3402.25 1449.29 3352.05 1445.39C3340.73 1444.56 3329.73 1443.56 3318.72 1441.75C3256.16 1431.48 3198.9 1397.5 3167.8 1364.79C3192.69 1337.94 3225.33 1313.22 3248.02 1285.77C3262.61 1298.16 3277.02 1310.77 3295.56 1321.26C3318.06 1333.98 3350.42 1345.41 3382.58 1344.54C3402.63 1343.99 3419.83 1338.52 3432.7 1329.51C3453.92 1314.66 3460.72 1294.18 3458.01 1275.22C3450.06 1219.64 3348.47 1204.98 3286.78 1174.27C3227.45 1144.74 3193.14 1101.13 3187.07 1055.7C3180.55 1006.9 3201.78 952.283 3256.74 914.565Q3258.55 913.332 3260.41 912.125Q3262.27 910.918 3264.17 909.739Q3266.08 908.56 3268.04 907.409Q3270 906.257 3272 905.135Q3274 904.012 3276.05 902.919Q3278.1 901.826 3280.2 900.764Q3282.29 899.701 3284.43 898.668Q3286.57 897.636 3288.75 896.635Q3290.93 895.635 3293.15 894.666Q3295.37 893.697 3297.63 892.761Q3299.89 891.824 3302.19 890.921Q3304.49 890.018 3306.83 889.149Q3309.16 888.279 3311.53 887.444Q3313.9 886.609 3316.31 885.808Q3318.71 885.007 3321.15 884.242Q3323.59 883.476 3326.06 882.747Q3328.52 882.017 3331.02 881.323Q3333.52 880.629 3336.05 879.972Q3338.57 879.315 3341.13 878.694Q3343.68 878.074 3346.26 877.491Q3348.83 876.908 3351.43 876.363Q3354.03 875.817 3356.66 875.31Q3359.28 874.802 3361.92 874.333Q3364.57 873.863 3367.23 873.433Q3369.89 873.002 3372.57 872.61Q3375.25 872.218 3377.94 871.865Q3380.64 871.512 3383.34 871.199Q3386.05 870.885 3388.77 870.611Q3391.49 870.336 3394.22 870.102Q3396.95 869.867 3399.69 869.672Q3402.43 869.477 3405.18 869.322Q3407.93 869.167 3410.68 869.052Z"/>
	<path fill="#0AA2CC" d="M781.646 869.05Q784.363 868.897 787.087 868.802C837.833 866.893 892.594 878.563 930.32 898.623C978.361 924.167 1002.04 963.113 1014.68 999.609C1034.68 1057.36 1028.57 1118.39 1028.53 1177.05C1028.46 1262.03 1026.79 1347.73 1034.08 1432.61C991.558 1434.74 949.95 1435.46 907.255 1435.51C903.482 1414.92 903.872 1394.24 894.675 1374.09C864.909 1396.01 853.012 1413.49 810.552 1429.52C776.253 1442.47 736.733 1449.26 696.352 1443.85C645.959 1437.09 615.623 1416.37 588.869 1391.69C568.065 1368.6 555.433 1344.41 549.862 1318.46C537.223 1259.58 548.586 1190.7 612.492 1142.66C686.947 1086.68 776.339 1078.62 888.322 1070.8C883.864 1041.55 878.294 1005.49 838.73 984.588C819.583 974.474 794.944 970.546 769.622 971.716C713.26 974.321 667.695 1005.54 633.398 1029.15C618.727 1013.18 582.238 977.377 578.434 960.899C575.806 949.519 597.065 935.656 608.411 927.389C654.211 894.015 708.775 873.52 781.646 869.05ZM849.978 1185.29C806.479 1187.29 749.773 1186.08 718.611 1207.25C690.901 1226.06 684.958 1254.59 688.528 1278.55C691.654 1299.54 703.58 1324.42 732.431 1338.26C734.519 1339.26 736.67 1340.18 738.867 1341.09C757.502 1346.54 775.465 1347.65 795.484 1343.65C826.477 1337.45 852.12 1318.98 865.446 1301.84C886.556 1274.68 888.641 1244.34 889.28 1214.96C889.445 1207.37 891.056 1198 886.807 1190.76C885.139 1187.92 882.94 1186.54 878.085 1185.49C870.441 1183.84 858.083 1184.9 849.978 1185.29Z"/>
	<path fill="#0AA2CC" d="M2525.96 1335.45C2515.15 1362.26 2480.01 1392.2 2446.73 1411.05C2405.12 1434.61 2353.15 1445.81 2295.76 1444.8Q2292.5 1444.75 2289.24 1444.66Q2285.99 1444.56 2282.74 1444.41Q2279.48 1444.27 2276.24 1444.07Q2273 1443.88 2269.76 1443.64Q2266.53 1443.4 2263.3 1443.11Q2260.08 1442.82 2256.87 1442.48Q2253.66 1442.14 2250.46 1441.76Q2247.27 1441.37 2244.09 1440.94Q2240.91 1440.5 2237.76 1440.02Q2234.6 1439.54 2231.46 1439.02Q2228.32 1438.49 2225.21 1437.91Q2222.1 1437.34 2219.01 1436.72Q2215.92 1436.1 2212.86 1435.43Q2209.8 1434.77 2206.77 1434.06Q2203.74 1433.35 2200.74 1432.59Q2197.74 1431.83 2194.77 1431.03Q2191.81 1430.23 2188.88 1429.39Q2185.94 1428.54 2183.05 1427.66Q2180.15 1426.77 2177.3 1425.84Q2174.44 1424.91 2171.63 1423.93Q2168.81 1422.96 2166.04 1421.95Q2163.27 1420.93 2160.54 1419.88Q2157.81 1418.82 2155.12 1417.72Q2152.44 1416.63 2149.8 1415.49Q2147.17 1414.36 2144.58 1413.18Q2141.99 1412.01 2139.46 1410.79Q2136.92 1409.58 2134.44 1408.33Q2131.96 1407.08 2129.53 1405.79Q2127.1 1404.51 2124.72 1403.19Q2122.35 1401.86 2120.03 1400.51Q2117.72 1399.15 2115.46 1397.76Q2113.2 1396.36 2111 1394.94C2009 1329.87 1988.45 1228.02 1993.77 1143.03C1999.02 1059.16 2035.48 961.003 2143.68 902.157Q2145.62 901.102 2147.6 900.075Q2149.59 899.049 2151.62 898.052Q2153.64 897.054 2155.71 896.087Q2157.78 895.12 2159.89 894.184Q2161.99 893.247 2164.14 892.342Q2166.29 891.436 2168.47 890.563Q2170.65 889.689 2172.87 888.847Q2175.09 888.006 2177.34 887.197Q2179.6 886.389 2181.89 885.613Q2184.17 884.838 2186.49 884.096Q2188.81 883.354 2191.16 882.647Q2193.51 881.939 2195.89 881.266Q2198.26 880.593 2200.67 879.956Q2203.07 879.318 2205.51 878.715Q2207.94 878.113 2210.39 877.546Q2212.85 876.979 2215.33 876.449Q2217.81 875.918 2220.31 875.424Q2222.81 874.93 2225.33 874.473Q2227.85 874.016 2230.38 873.595Q2232.92 873.175 2235.48 872.792Q2238.03 872.409 2240.6 872.064Q2243.17 871.718 2245.76 871.411Q2248.34 871.103 2250.94 870.833Q2253.53 870.564 2256.14 870.332Q2258.75 870.1 2261.36 869.907Q2263.98 869.714 2266.6 869.559Q2269.22 869.404 2271.85 869.287Q2274.48 869.171 2277.11 869.093Q2279.75 869.015 2282.38 868.975Q2285.02 868.936 2287.65 868.935Q2290.29 868.934 2292.92 868.972Q2295.56 869.01 2298.19 869.086C2352.48 870.543 2401.14 885.13 2437.45 908.882C2539.12 975.405 2553.65 1092.86 2545.88 1178.66C2536.73 1182.61 2538.61 1189.17 2532.06 1190.67C2522.65 1192.81 2507.58 1192.85 2497.53 1192.99C2471.54 1193.36 2445.4 1191.47 2419.34 1191.54C2339.24 1191.75 2259.22 1193 2179.09 1192.54C2168.78 1192.48 2145.05 1189.6 2141.47 1196.8C2138.86 1197.36 2140.34 1196.89 2137.57 1198.69C2135.77 1207.58 2139.25 1217.23 2141.8 1226C2152.2 1261.76 2173.98 1307.13 2226.9 1328.94C2252.17 1339.36 2285.02 1344.42 2315.48 1340.97C2351.74 1336.86 2384.63 1320.69 2402.46 1301.94C2410.95 1293.03 2417.36 1283.29 2427.06 1274.82C2427.41 1274.51 2427.77 1274.22 2428.12 1273.92C2458.68 1291.42 2499.59 1315.98 2525.96 1335.45ZM2262.01 965.419C2221.98 971.948 2202.27 983.333 2182.19 1004.14C2167.66 1019.21 2133.17 1072.9 2139.4 1090.02C2140.44 1092.88 2142.16 1094.65 2146.53 1096.14C2164.62 1102.3 2258.3 1098.81 2283.5 1098.58C2323.95 1098.96 2366.23 1100.61 2406.36 1097.4C2403.36 1059.15 2394.4 1007.38 2343.4 979.882C2324.53 969.707 2300.53 964.034 2274.94 964.83Q2268.46 965.009 2262.01 965.419Z"/>
</svg>
