<svg width="161" height="54" viewBox="0 0 161 54" fill="none" xmlns="http://www.w3.org/2000/svg">
<path fill-rule="evenodd" clip-rule="evenodd" d="M157.31 28.095C154.839 28.095 153.032 28.7923 153.032 32.414C153.032 35.6167 154.44 36.8974 157.217 36.8974C158.156 36.8974 160.828 36.7881 160.828 36.7881L160.731 39.4389C160.731 39.4389 158.533 39.4859 156.859 39.4859C152.668 39.4859 150.217 37.6795 150.217 32.4845C150.217 27.8557 152.548 25.53 156.713 25.53C158.326 25.53 160.668 25.577 160.668 25.577L160.601 28.1556C160.601 28.1556 158.412 28.095 157.31 28.095ZM140.493 34.3568V25.5255H143.164V33.3407C143.164 35.95 143.946 36.6526 145.456 36.6526H149.314V39.261H145.343C144.693 39.2894 144.044 39.1815 143.439 38.9443C142.833 38.707 142.284 38.3457 141.827 37.8836C141.37 37.4215 141.015 36.8688 140.785 36.2613C140.556 35.6539 140.456 35.0051 140.493 34.3568ZM129.974 34.3568V25.5255H132.645V33.3407C132.645 35.95 133.427 36.6526 134.937 36.6526H138.795V39.261H134.824C134.174 39.2894 133.525 39.1815 132.92 38.9443C132.314 38.707 131.765 38.3457 131.308 37.8836C130.851 37.4215 130.496 36.8688 130.266 36.2613C130.037 35.6539 129.937 35.0051 129.974 34.3568ZM119.915 40.1055L119.998 38.5619L119.13 38.2838L119.01 36.5759L121.156 36.5975L121.072 40.1479L119.915 40.1055ZM111.092 39.485C107.009 39.485 104.733 37.5757 104.733 32.4953C104.733 27.415 107.141 25.3015 111.204 25.3015C114.978 25.3015 117.511 27.2831 117.511 32.3634C117.511 37.4438 115.114 39.4859 111.092 39.4859V39.485ZM111.122 27.7699C109.019 27.7699 107.684 29.0497 107.684 32.4366C107.684 35.8235 109.064 37.0202 111.145 37.0202C113.248 37.0202 114.678 35.6275 114.678 32.3535C114.678 29.0795 113.266 27.7699 111.122 27.7699ZM100.324 39.2619L97.7049 33.8609H94.2773V39.2619H91.5337V25.596C92.5336 25.4334 95.269 25.5364 96.9222 25.5364C101.17 25.5364 102.752 26.8351 102.752 29.3776C102.752 33.5023 100.436 33.3858 100.436 33.3858L103.623 39.261H100.324V39.2619ZM97.6099 27.7275C96.8543 27.7275 94.5026 27.7889 94.2782 27.8295V31.6228H97.4262C98.978 31.6228 100.123 31.0006 100.123 29.6458C100.123 28.291 99.0377 27.7473 97.609 27.7266L97.6099 27.7275ZM83.5927 34.1824C83.1846 34.1824 80.6067 34.2339 80.6067 34.2339V39.2583H78.0902V25.7089C79.6405 25.5995 81.1959 25.5796 82.7485 25.6493C86.3968 25.6493 89.1033 26.2038 89.1033 29.7036C89.1033 33.2034 86.8484 34.1824 83.5927 34.1824ZM84.0451 27.7645C83.4117 27.7645 80.8338 27.8259 80.6067 27.8864V31.603C80.8718 31.6644 83.3475 31.6843 83.7972 31.6843C85.4513 31.6843 86.4719 31.2489 86.4719 29.7813C86.4719 28.3136 85.5951 27.7699 84.0433 27.7699L84.0451 27.7645ZM72.2358 25.5255H74.7938V39.2619H72.2358V25.5255ZM60.2464 29.1328C60.3369 31.1947 60.3686 39.261 60.3686 39.261H57.7354V25.5255H60.8038L66.7008 35.2663L66.7225 25.5246H69.2416V39.2619H66.4275L60.2464 29.1328ZM47.3974 39.1779C45.7841 39.1779 43.5255 39.1996 43.5255 39.1996V25.7089C43.5255 25.7089 46.4989 25.6493 48.0706 25.6493C52.4809 25.6493 55.4679 26.5353 55.4679 32.1801C55.4679 37.8249 52.8175 39.1788 47.4001 39.1788L47.3974 39.1779ZM48.9637 27.8078C48.2697 27.8078 46.4627 27.8693 46.1976 27.9298V36.9173C46.4654 36.9823 48.5909 36.9823 48.9809 36.9823C51.7987 37.0031 52.7316 34.9953 52.7316 32.2858C52.7316 29.5763 51.5272 27.8087 48.9655 27.8087L48.9637 27.8078ZM25.1098 40.0865C21.1511 40.0865 17.3525 36.3835 17.3525 36.3835C14.9965 38.6811 11.8428 39.9821 8.54911 40.0151C1.63056 40.0151 0 34.681 0 32.1404C0.0853956 30.6625 0.734897 29.2735 1.81493 28.2589C2.89496 27.2444 4.3234 26.6816 5.80648 26.6861C8.97349 26.6861 11.4618 28.4924 11.4618 31.202C11.4937 31.9746 11.2784 32.7372 10.8469 33.3795C10.4155 34.0217 9.79036 34.5101 9.06216 34.774C8.71554 34.9301 8.34011 35.0124 7.95984 35.0155C7.57958 35.0186 7.20284 34.9425 6.85371 34.7921C6.50457 34.6416 6.1907 34.4202 5.93216 34.1418C5.67362 33.8635 5.47609 33.5344 5.35218 33.1755C5.22828 32.8167 5.18072 32.436 5.21255 32.0577C5.24439 31.6795 5.35491 31.312 5.53706 30.9788C5.71921 30.6456 5.96898 30.354 6.27042 30.1226C6.57187 29.8912 6.91835 29.7251 7.28773 29.635C7.16811 29.3479 6.96011 29.1063 6.69383 28.9451C6.42754 28.7839 6.11678 28.7114 5.80648 28.7381C4.29808 28.7381 2.71458 30.3376 2.71458 32.3878C2.71458 34.9465 4.75051 37.3743 8.36995 37.3743C11.9894 37.3743 16.9923 34.4137 16.9923 31.1685C16.9923 28.5927 18.841 26.3817 22.093 26.3817C22.6655 26.3855 23.2335 26.4832 23.7743 26.6707H29.5446C29.5127 25.3269 29.3146 23.9921 28.9546 22.6968C28.8768 22.7392 28.8035 22.7871 28.7248 22.8259C27.5756 23.3887 26.3593 23.8033 25.1053 24.0597V25.0333C24.3216 24.7833 23.5192 24.5964 22.7056 24.4742C22.0463 24.4077 21.3807 24.4406 20.7312 24.5718L20.8869 3.8087C20.8869 3.8087 17.7199 3.65155 13.8724 10.391C10.5244 16.2617 9.12369 25.7856 9.12369 25.7856C8.36558 25.5069 7.58605 25.29 6.79278 25.1372C6.11997 25.036 5.43983 24.9916 4.75956 25.0044C5.67895 18.2178 8.65611 11.8743 13.2915 6.8253C19.8779 -0.165267 25.1098 0.64759 25.1098 0.64759V17.005C27.9828 16.8903 38.1552 17.2696 38.1552 28.4202C38.1552 35.194 31.5289 40.0865 25.1098 40.0865ZM24.0521 34.3875C23.4872 34.3895 22.9375 34.2054 22.4881 33.8637C22.0388 33.5221 21.715 33.0419 21.5671 32.4978C21.4191 31.9537 21.4551 31.376 21.6697 30.8545C21.8842 30.3329 22.2652 29.8966 22.7536 29.6133C22.7427 29.5026 22.7091 29.3953 22.655 29.2981C22.6009 29.2009 22.5274 29.1158 22.439 29.048C22.3507 28.9803 22.2493 28.9314 22.1412 28.9043C22.0332 28.8773 21.9207 28.8727 21.8107 28.8907C20.9971 28.9461 20.2373 29.3164 19.6932 29.9227C19.1491 30.529 18.8638 31.3235 18.898 32.1368C18.898 34.2086 20.4625 37.3183 24.785 37.4239C26.3358 35.9764 27.5875 34.2397 28.4696 32.312C27.9511 32.0193 27.4453 31.7701 26.9928 31.5632C26.8864 32.4031 26.4559 33.1685 25.793 33.6965C25.3212 34.1384 24.699 34.3853 24.0521 34.3875ZM25.3931 27.5802C26.3043 28.3487 26.8903 29.4328 27.0336 30.6149C27.636 30.8657 28.2249 31.1476 28.798 31.4594C29.2649 30.2157 29.5218 28.9033 29.5581 27.5757H25.3958L25.3931 27.5802ZM25.1098 18.6081V23.1727C26.2062 22.9241 27.2692 22.547 28.2768 22.0492C28.408 21.9815 28.5329 21.9047 28.6614 21.8324C28.251 20.6537 27.619 19.5639 26.7992 18.6217C26.237 18.5805 25.6727 18.576 25.1098 18.6081ZM28.0226 18.777C28.6337 19.5502 29.1349 20.4039 29.512 21.314C30.1292 20.9067 30.7223 20.464 31.2882 19.9882C30.2873 19.3799 29.1787 18.969 28.0226 18.7779V18.777ZM32.0311 20.5129C31.3425 21.1186 30.6109 21.674 29.8422 22.1747C30.3275 23.6287 30.6018 25.1446 30.6566 26.6762H34.8597C34.6389 23.6279 33.4943 21.7069 32.0302 20.5138L32.0311 20.5129ZM34.904 27.7383C34.904 27.6814 34.8977 27.6317 34.8968 27.5757H30.6874C30.6767 29.1124 30.3752 30.6332 29.7988 32.0582C29.9192 32.1368 30.0413 32.2108 30.1608 32.2939C30.9543 32.875 31.6841 33.5383 32.3379 34.2728C34.0085 32.5102 34.9283 30.1691 34.9031 27.7428L34.904 27.7383ZM29.6685 33.0526C29.5907 32.9975 29.5102 32.9505 29.4314 32.8972C28.6341 34.5501 27.5583 36.0541 26.2509 37.3435C28.2734 37.085 30.1725 36.2292 31.7045 34.886C31.0897 34.209 30.4072 33.5965 29.6676 33.058L29.6685 33.0526Z" fill="#1C7BD3"/>
<path fill-rule="evenodd" clip-rule="evenodd" d="M26.4174 47.1592L26.8046 46.3753C26.1279 46.0615 25.388 45.907 24.642 45.9237C23.9368 45.9064 23.2397 46.077 22.6224 46.4177C22.0529 46.7442 21.5953 47.2346 21.3094 47.8249C20.9949 48.4888 20.84 49.2168 20.857 49.9509C20.7868 51.0304 21.1234 52.097 21.8008 52.9414C22.1439 53.3014 22.5617 53.5822 23.025 53.7639C23.4883 53.9457 23.9859 54.0241 24.4828 53.9935C25.168 54.0116 25.8509 53.9079 26.4997 53.6874V52.8881C25.8901 53.0707 25.2585 53.1701 24.6221 53.1834C24.2372 53.2068 23.8518 53.1434 23.4947 52.998C23.1376 52.8526 22.8178 52.6289 22.559 52.3434C22.0373 51.663 21.7801 50.8169 21.8352 49.9618C21.7866 49.1099 22.0535 48.2699 22.5853 47.6018C22.8398 47.3141 23.1557 47.087 23.5098 46.9372C23.8638 46.7875 24.247 46.7189 24.6312 46.7365C25.2504 46.7421 25.8605 46.8852 26.4174 47.1556V47.1592ZM32.8591 48.5429C32.6081 48.2708 32.3 48.0575 31.9568 47.9182C31.6136 47.779 31.2437 47.7172 30.8738 47.7373C30.5002 47.7144 30.126 47.7734 29.7776 47.9101C29.4292 48.0468 29.115 48.2578 28.8569 48.5284C28.3492 49.1566 28.0957 49.9519 28.1466 50.7575C28.0948 51.5677 28.347 52.3681 28.8542 53.0028C29.1104 53.2745 29.4235 53.4867 29.7711 53.6242C30.1187 53.7617 30.4924 53.8212 30.8657 53.7985C31.237 53.8181 31.6081 53.7554 31.9523 53.6148C32.2965 53.4743 32.6052 53.2594 32.8563 52.9856C33.321 52.3379 33.5711 51.5613 33.5716 50.7647C33.5721 49.968 33.323 49.1912 32.8591 48.5429ZM29.3835 48.9674C29.5677 48.7569 29.7981 48.5916 30.0567 48.4845C30.3154 48.3773 30.5953 48.3312 30.8747 48.3496C31.1514 48.3306 31.4288 48.3762 31.6849 48.4828C31.9409 48.5894 32.1685 48.7541 32.3496 48.9638C32.6763 49.5109 32.8488 50.1359 32.8488 50.7728C32.8488 51.4097 32.6763 52.0348 32.3496 52.5819C32.156 52.7778 31.9253 52.9334 31.671 53.0396C31.4166 53.1458 31.1436 53.2005 30.8679 53.2005C30.5922 53.2005 30.3192 53.1458 30.0649 53.0396C29.8105 52.9334 29.5798 52.7778 29.3862 52.5819C29.0107 52.0543 28.8303 51.413 28.8759 50.7674C28.8301 50.1262 29.0096 49.489 29.3835 48.9656V48.9674ZM38.7406 53.3162L40.5603 50.2246L41.3068 53.7172H41.9927L40.9069 47.8294L38.5063 52.2847H38.4773L35.8605 47.8276L35 53.7154H35.6334L36.2405 50.1027L38.1842 53.3171H38.737L38.7406 53.3162ZM45.3696 47.8294H43.8404V53.7172H44.5263V51.3996H45.2203C45.841 51.4399 46.4571 51.2703 46.9694 50.9182C47.1732 50.7537 47.3349 50.5432 47.4411 50.304C47.5473 50.0649 47.595 49.8039 47.5802 49.5427C47.5802 48.3987 46.8433 47.8267 45.3696 47.8267V47.8294ZM44.5263 48.4219H45.2927C45.711 48.3898 46.1288 48.4896 46.4871 48.7073C46.6173 48.8101 46.7203 48.943 46.7871 49.0946C46.854 49.2462 46.8827 49.4118 46.8708 49.577C46.8862 49.7554 46.857 49.9348 46.7859 50.0992C46.7149 50.2636 46.6042 50.4078 46.4636 50.519C46.0634 50.7469 45.6036 50.8492 45.1443 50.8126H44.5263V48.4192V48.4219ZM51.7588 53.7172V53.0949H49.1565V47.8276H48.4706V53.7154H51.7588V53.7172ZM56.3917 53.1048H53.7893V50.9372H56.2325V50.3321H53.7893V48.4354H56.3917V47.8276H53.1035V53.7154H56.3917V53.103V53.1048ZM60.2012 48.4354H62.0688V47.8276H57.6486V48.4354H59.5162V53.7145H60.2012V48.4354ZM66.3977 53.103H63.7971V50.9354H66.2402V50.3321H63.7971V48.4354H66.3995V47.8276H63.1112V53.7154H66.3995V53.103H66.3977ZM74.9169 53.887V53.0588H71.4486V46.0366H70.5347V53.887H74.9187H74.9169ZM80.8075 48.4833C80.5566 48.2112 80.2485 47.9979 79.9053 47.8586C79.562 47.7193 79.1922 47.6575 78.8223 47.6776C78.4486 47.6548 78.0745 47.7138 77.7261 47.8505C77.3777 47.9871 77.0634 48.1982 76.8053 48.4688C76.2976 49.097 76.0442 49.8923 76.095 50.6979C76.0433 51.508 76.2955 52.3084 76.8026 52.9432C77.0589 53.2149 77.372 53.4271 77.7196 53.5646C78.0672 53.7021 78.4409 53.7616 78.8141 53.7389C79.1855 53.7585 79.5566 53.6959 79.9008 53.5553C80.245 53.4148 80.5538 53.1998 80.8048 52.926C81.2698 52.2785 81.5202 51.502 81.521 50.7054C81.5218 49.9087 81.273 49.1317 80.8093 48.4833H80.8075ZM77.332 48.9078C77.5161 48.6974 77.7463 48.5322 78.0048 48.4251C78.2633 48.3179 78.543 48.2717 78.8223 48.29C79.099 48.271 79.3764 48.3165 79.6324 48.4232C79.8884 48.5298 80.1161 48.6945 80.2972 48.9042C80.6239 49.4512 80.7964 50.0763 80.7964 50.7132C80.7964 51.3501 80.6239 51.9752 80.2972 52.5223C80.1036 52.7182 79.8729 52.8738 79.6185 52.98C79.3642 53.0862 79.0912 53.1408 78.8155 53.1408C78.5398 53.1408 78.2668 53.0862 78.0124 52.98C77.7581 52.8738 77.5274 52.7182 77.3338 52.5223C76.9588 51.9955 76.7785 51.3552 76.8234 50.7105C76.7774 50.0674 76.9579 49.4285 77.3338 48.9042L77.332 48.9078ZM86.2349 51.1847H87.5542V52.9964C87.1615 53.0907 86.759 53.138 86.3552 53.1373C86.0426 53.1598 85.7287 53.1165 85.4338 53.0104C85.139 52.9043 84.8696 52.7377 84.6432 52.5214C84.2219 52.0173 84.0128 51.3698 84.0596 50.715C84.0212 50.0669 84.2385 49.4296 84.6649 48.9394C84.8844 48.7203 85.1478 48.55 85.4379 48.4396C85.7279 48.3293 86.0381 48.2814 86.348 48.299C86.8784 48.307 87.4017 48.4222 87.8862 48.6377L88.1532 48.0335C87.5964 47.8002 86.9979 47.6825 86.3941 47.6876C85.8297 47.6727 85.2703 47.7968 84.7654 48.0489C84.311 48.2833 83.9398 48.6516 83.7022 49.1038C83.4474 49.6011 83.3205 50.1539 83.333 50.7123C83.2826 51.5239 83.5503 52.3232 84.0795 52.9414C84.3507 53.214 84.677 53.426 85.0366 53.5632C85.3962 53.7003 85.7809 53.7596 86.1652 53.737C86.5403 53.7405 86.9152 53.7148 87.2863 53.6603C87.6092 53.6092 87.9277 53.5337 88.2391 53.4345V50.5714H86.234V51.1838L86.2349 51.1847ZM90.0742 53.6576V47.7707H89.3883V53.6585H90.0742V53.6576ZM94.9387 51.1088C94.5726 50.7788 94.136 50.5363 93.662 50.3998C93.3776 50.3055 93.1028 50.1846 92.8413 50.0385C92.6858 49.952 92.5548 49.8278 92.4603 49.6773C92.3789 49.5231 92.3399 49.3501 92.3472 49.176C92.3417 49.0512 92.3668 48.9269 92.4203 48.8139C92.4737 48.7009 92.5539 48.6026 92.6539 48.5275C92.9039 48.3582 93.2029 48.276 93.5045 48.2936C93.9938 48.2998 94.4769 48.4039 94.9251 48.5998L95.1387 48.0037C94.6277 47.785 94.0767 47.6752 93.5208 47.6813C93.0356 47.6572 92.5567 47.7993 92.1635 48.0841C91.9978 48.2109 91.8648 48.3755 91.7758 48.564C91.6867 48.7525 91.644 48.9596 91.6514 49.1679C91.6337 49.55 91.7595 49.9249 92.0043 50.2192C92.3326 50.5449 92.7368 50.7841 93.1806 50.9155C93.4828 51.0159 93.7761 51.1413 94.0574 51.2903C94.2221 51.3754 94.3634 51.4995 94.4691 51.6516C94.5569 51.8037 94.5996 51.9775 94.5922 52.1529C94.598 52.2924 94.5695 52.4313 94.5091 52.5573C94.4487 52.6832 94.3582 52.7925 94.2456 52.8754C93.9377 53.0697 93.5756 53.1608 93.2122 53.1355C92.9276 53.1345 92.6438 53.1042 92.3653 53.0452C92.0945 52.9907 91.8296 52.9099 91.5744 52.8041V53.4643C92.0868 53.6693 92.6374 53.7617 93.1887 53.7352C93.734 53.7648 94.2735 53.6116 94.7215 53.2999C94.9065 53.1582 95.0544 52.974 95.1527 52.763C95.251 52.5519 95.2968 52.3203 95.2862 52.0879C95.3019 51.7292 95.178 51.3784 94.9405 51.1088H94.9387ZM98.6541 48.3785H100.523V47.7707H96.1006V48.3785H97.9682V53.6576H98.6577V48.3785H98.6541ZM102.591 53.6576V47.7707H101.905V53.6585H102.591V53.6576ZM108.152 48.6115L108.443 48.0236C107.935 47.7886 107.381 47.673 106.821 47.6858C106.292 47.6729 105.769 47.8007 105.306 48.0561C104.879 48.3008 104.536 48.6685 104.322 49.111C104.085 49.6088 103.968 50.155 103.981 50.706C103.928 51.5155 104.181 52.3153 104.689 52.9486C104.946 53.2186 105.259 53.4291 105.607 53.5655C105.954 53.7018 106.327 53.7607 106.7 53.7379C107.214 53.7516 107.726 53.674 108.213 53.5085V52.9088C107.756 53.0457 107.282 53.1202 106.805 53.1301C106.516 53.1473 106.227 53.0994 105.959 52.99C105.691 52.8806 105.452 52.7124 105.258 52.4979C104.867 51.9877 104.674 51.3534 104.715 50.7123C104.679 50.0733 104.879 49.4433 105.278 48.9421C105.469 48.7262 105.707 48.556 105.973 48.4441C106.239 48.3322 106.527 48.2814 106.816 48.2954C107.28 48.2996 107.738 48.407 108.155 48.6097L108.152 48.6115ZM112.651 51.1079C112.285 50.7779 111.849 50.5354 111.375 50.3989C111.09 50.3048 110.815 50.1838 110.554 50.0376C110.398 49.9509 110.267 49.8267 110.172 49.6764C110.091 49.522 110.053 49.3491 110.06 49.1751C110.054 49.0503 110.079 48.926 110.133 48.813C110.186 48.7 110.267 48.6017 110.367 48.5266C110.617 48.3573 110.916 48.2751 111.217 48.2927C111.706 48.2989 112.189 48.403 112.638 48.5989L112.851 48.0028C112.34 47.7841 111.789 47.6743 111.233 47.6804C110.748 47.6561 110.269 47.7983 109.876 48.0832C109.71 48.2099 109.577 48.3744 109.488 48.563C109.399 48.7515 109.356 48.9586 109.364 49.167C109.346 49.5491 109.472 49.924 109.717 50.2183C110.045 50.544 110.449 50.7832 110.893 50.9146C111.195 51.015 111.489 51.1404 111.77 51.2894C111.935 51.3748 112.076 51.4988 112.182 51.6507C112.27 51.8028 112.312 51.9766 112.305 52.152C112.311 52.2915 112.282 52.4304 112.222 52.5563C112.161 52.6823 112.071 52.7916 111.958 52.8745C111.65 53.0688 111.288 53.1599 110.925 53.1346C110.64 53.1336 110.356 53.1033 110.078 53.0443C109.807 52.9898 109.542 52.909 109.287 52.8032V53.4634C109.799 53.6684 110.35 53.7608 110.901 53.7343C111.447 53.7639 111.986 53.6107 112.434 53.299C112.619 53.1573 112.767 52.9731 112.865 52.7621C112.964 52.551 113.009 52.3194 112.999 52.0869C113.014 51.7287 112.89 51.3784 112.653 51.1088L112.651 51.1079ZM121.021 50.4874C120.533 50.0478 119.951 49.7248 119.319 49.5427C118.94 49.4176 118.573 49.2567 118.224 49.0622C118.018 48.9479 117.843 48.7836 117.716 48.5844C117.608 48.3786 117.556 48.1482 117.566 47.9161C117.558 47.7498 117.592 47.5842 117.663 47.4336C117.734 47.283 117.841 47.152 117.974 47.0518C118.307 46.8253 118.705 46.7146 119.107 46.7365C119.76 46.7448 120.403 46.8836 121 47.1448L121.286 46.35C120.605 46.0585 119.87 45.9121 119.129 45.9201C118.482 45.8876 117.844 46.0769 117.319 46.4566C117.098 46.6257 116.921 46.845 116.802 47.0964C116.684 47.3478 116.627 47.6239 116.636 47.9016C116.613 48.411 116.781 48.9108 117.107 49.3034C117.545 49.7376 118.083 50.0569 118.675 50.2327C119.078 50.3665 119.47 50.5335 119.845 50.7322C120.064 50.8455 120.253 51.0104 120.394 51.2127C120.511 51.4157 120.567 51.6473 120.558 51.881C120.566 52.0672 120.528 52.2524 120.447 52.4204C120.367 52.5884 120.246 52.7341 120.096 52.8447C119.685 53.1033 119.203 53.2245 118.718 53.1906C118.339 53.1899 117.96 53.1503 117.588 53.0723C117.227 52.9993 116.874 52.8913 116.534 52.7499V53.6305C117.217 53.9037 117.951 54.027 118.686 53.9917C119.413 54.0313 120.132 53.8272 120.73 53.4119C120.977 53.2231 121.174 52.9776 121.305 52.6962C121.436 52.4149 121.497 52.1061 121.483 51.7961C121.504 51.3173 121.34 50.8488 121.023 50.4883L121.021 50.4874ZM127.496 48.5393C127.245 48.2674 126.937 48.0542 126.594 47.9149C126.251 47.7756 125.881 47.7137 125.511 47.7336C125.137 47.7108 124.763 47.7698 124.415 47.9065C124.066 48.0431 123.752 48.2542 123.493 48.5248C122.986 49.1532 122.733 49.9484 122.784 50.7539C122.732 51.564 122.985 52.3643 123.492 52.9992C123.748 53.2708 124.061 53.4829 124.409 53.6204C124.756 53.7579 125.13 53.8175 125.503 53.7949C125.874 53.8146 126.246 53.752 126.59 53.6114C126.934 53.4709 127.243 53.2559 127.494 52.982C127.958 52.3349 128.208 51.5591 128.209 50.7632C128.21 49.9672 127.961 49.191 127.498 48.5429L127.496 48.5393ZM124.02 48.9638C124.204 48.7533 124.435 48.5881 124.693 48.481C124.952 48.3738 125.232 48.3276 125.511 48.346C125.788 48.3272 126.065 48.3729 126.321 48.4794C126.577 48.586 126.805 48.7506 126.986 48.9602C127.313 49.5073 127.485 50.1323 127.485 50.7692C127.485 51.4061 127.313 52.0312 126.986 52.5783C126.804 52.7886 126.576 52.9538 126.319 53.0607C126.062 53.1676 125.783 53.2134 125.506 53.1942C125.228 53.2122 124.949 53.1658 124.692 53.0587C124.434 52.9515 124.206 52.7865 124.023 52.5765C123.647 52.0489 123.467 51.4076 123.512 50.762C123.468 50.1224 123.649 49.4874 124.022 48.9656L124.02 48.9638ZM133.445 53.7136V53.0949H130.843V47.8276H130.157V53.7154H133.445V53.7136ZM138.214 47.8258V51.6597C138.227 51.8668 138.199 52.0746 138.129 52.2702C138.06 52.4659 137.951 52.6454 137.81 52.7977C137.654 52.9369 137.473 53.0436 137.275 53.1117C137.078 53.1798 136.868 53.2079 136.66 53.1942C136.446 53.2097 136.231 53.1828 136.027 53.1151C135.824 53.0473 135.636 52.9401 135.474 52.7996C135.333 52.6483 135.224 52.4699 135.155 52.2753C135.086 52.0807 135.057 51.8739 135.071 51.6679V47.8276H134.385V51.6209C134.369 51.9123 134.412 52.2041 134.512 52.4783C134.612 52.7525 134.767 53.0035 134.968 53.2159C135.189 53.4182 135.449 53.5738 135.733 53.6734C136.016 53.7731 136.316 53.8147 136.616 53.7958C137.228 53.8305 137.83 53.6235 138.291 53.2195C138.498 53.0133 138.659 52.7658 138.764 52.4932C138.869 52.2205 138.915 51.9288 138.899 51.6372V47.8276H138.214V47.8258ZM142.62 48.4336H144.489V47.8276H140.067V48.4354H141.934V53.7145H142.62V48.4354V48.4336ZM146.521 53.7127V47.8276H145.837V53.7154H146.525L146.521 53.7127ZM153.175 48.5375C152.925 48.2655 152.617 48.0522 152.274 47.9129C151.931 47.7736 151.561 47.7118 151.191 47.7318C150.817 47.709 150.443 47.768 150.094 47.9046C149.746 48.0413 149.432 48.2524 149.173 48.523C148.666 49.1514 148.413 49.9466 148.464 50.7521C148.412 51.5623 148.664 52.3627 149.171 52.9973C149.428 53.269 149.741 53.4811 150.088 53.6186C150.436 53.7561 150.81 53.8157 151.183 53.793C151.554 53.8128 151.925 53.7501 152.27 53.6096C152.614 53.469 152.923 53.2541 153.174 52.9802C153.638 52.3332 153.887 51.5577 153.888 50.7621C153.889 49.9665 153.64 49.1906 153.177 48.5429L153.175 48.5375ZM149.7 48.962C149.884 48.7515 150.114 48.5862 150.373 48.4791C150.632 48.3719 150.912 48.3258 151.191 48.3442C151.468 48.3252 151.745 48.3708 152.001 48.4775C152.257 48.5841 152.484 48.7487 152.665 48.9584C152.992 49.5054 153.165 50.1305 153.165 50.7674C153.165 51.4044 152.992 52.0294 152.665 52.5765C152.483 52.7868 152.255 52.952 151.998 53.0589C151.741 53.1658 151.462 53.2116 151.185 53.1924C150.907 53.2104 150.628 53.164 150.371 53.0569C150.113 52.9497 149.885 52.7847 149.702 52.5747C149.326 52.0471 149.146 51.4057 149.191 50.7602C149.148 50.121 149.329 49.4868 149.702 48.9656L149.7 48.962ZM160.846 47.824H160.206C160.206 47.824 160.271 53.6377 160.206 52.7454L156.786 47.824H156.011V53.7118H156.645L156.612 48.7705L160.066 53.7118H160.849V47.8276L160.846 47.824ZM4.40486 46.7365H6.89594V45.9237H0.999878V46.7365H3.49095V53.8906H4.40577V46.7365H4.40486ZM12.6183 47.8881H11.9333V50.3926H8.82691V47.8845H8.14103V53.7723H8.82691V51.0013H11.9333V53.7723H12.6192V47.8845L12.6183 47.8881ZM17.2204 53.1599H14.6171V50.9923H17.0602V50.3899H14.6171V48.4932H17.2204V47.8845H13.9312V53.7723H17.2204V53.1599Z" fill="#575757"/>
</svg>
