<?xml version="1.0" encoding="utf-8" ?>
<svg xmlns="http://www.w3.org/2000/svg" xmlns:xlink="http://www.w3.org/1999/xlink" width="1744" height="1744">
	<path fill="#FEFEFE" d="M630.646 545.337C638.481 544.587 646.711 544.727 654.476 546.06C676.457 549.834 688.182 561.908 700.527 579.488C691.51 581.741 681.813 582.356 672.622 583.96C650.433 587.832 628.255 595.03 608.324 605.58C551.368 635.731 507.081 682.095 470.823 734.673C461.969 747.513 451.883 760.699 447.206 775.712C457.164 770.021 465.978 761.062 474.853 753.754Q476.983 752.032 479.169 750.382Q481.355 748.732 483.595 747.155Q485.834 745.578 488.124 744.076Q490.415 742.574 492.754 741.149Q495.092 739.723 497.477 738.376Q499.862 737.029 502.29 735.761Q504.718 734.493 507.186 733.307Q509.655 732.12 512.161 731.016Q514.668 729.912 517.21 728.891Q519.751 727.87 522.325 726.934Q524.899 725.998 527.503 725.148Q530.107 724.298 532.737 723.534Q535.367 722.77 538.021 722.094Q540.676 721.418 543.351 720.829Q546.026 720.241 548.719 719.742Q551.412 719.243 554.12 718.833C575.402 715.829 595.457 718.812 612.854 732.074C628.099 743.695 636.159 760.395 638.61 779.134C645.353 830.688 619.959 877.99 589.739 917.652C559.91 955.057 515.093 995.788 465.779 1001.23C439.998 1004.08 412.625 998.98 392.075 982.389C368.924 963.698 357.366 933.929 354.393 905C345.581 819.245 392.777 721.945 446.101 657.066C492.488 600.625 555.791 552.64 630.646 545.337ZM535.667 753.058C504.62 757.918 477.291 783.511 459.431 807.985C434.27 842.464 411.409 889.893 418.325 933.754C419.982 944.258 424.054 954.466 433.121 960.713C439.192 964.895 446.173 966.878 453.506 966.602C489.143 958.35 516.144 925.911 534.7 896.153C553.744 865.615 577.674 814.167 569.257 777.524C567.378 769.34 563.342 761.573 555.937 757.149C549.834 753.503 542.66 752.487 535.667 753.058Z"/>
	<path fill="#FEFEFE" d="M701.045 717.264C706.322 717.465 711.528 717.858 716.7 718.989C731.467 722.219 743.885 730.01 751.951 742.981C764.109 762.531 765.081 788.028 759.949 809.922C767.56 802.85 773.701 793.56 780.946 785.963C813.347 751.992 850.451 724.635 898.46 719.035C918.307 716.72 940.858 718.602 957.069 731.346C979.99 723.275 1002.81 717.259 1027.35 718.383C1048.02 719.33 1067.9 725.453 1082.02 741.276C1104.93 766.972 1103.6 801.856 1101.55 834.005C1115.42 816.414 1125.83 797.253 1142.25 781.461C1157.22 767.056 1180.52 753.28 1201.99 754.033C1212.04 754.385 1221.47 758.19 1228.19 765.791C1245.62 785.502 1244.48 817.119 1243.13 841.534C1248.19 832.692 1252.25 823.226 1257.08 814.236C1276.21 778.577 1306.72 734.084 1347.31 722.146C1361.97 717.835 1378.26 718.389 1391.76 726.026C1430.38 747.875 1408.64 812.372 1398.48 844.406C1392.14 864.382 1385.08 884.13 1378.79 904.119C1370.65 929.995 1362.32 958.805 1361.6 986.075C1361.27 998.534 1364.68 1010.83 1369.85 1022.08C1371.56 1025.8 1374.25 1030.17 1375.08 1034.11C1375.38 1035.5 1374.93 1035.51 1374.15 1036.55C1367.98 1038.35 1360.41 1036.99 1354.14 1036.14C1336.5 1033.74 1320.47 1028.28 1309.43 1013.54C1300.92 1002.19 1297.58 989.318 1297.55 975.279C1297.5 953.697 1304.4 931.795 1310.65 911.315C1318.97 884.027 1327.96 856.96 1336.46 829.73C1342.12 811.603 1348.64 793.163 1351.16 774.274C1351.84 769.165 1352.76 760.346 1348.75 756.389C1347.27 754.934 1345.45 754.607 1343.48 754.961C1319.44 759.273 1271.37 852.824 1258.17 875.835Q1245 898.932 1230.33 921.104C1220.03 936.582 1203.99 957.735 1184.37 961.136C1179.76 961.936 1175.13 961.23 1171.35 958.353C1134.96 930.725 1194.16 825.931 1186.08 795.371C1185.44 792.975 1184.78 792.681 1182.87 791.3C1180.69 790.933 1179.17 790.969 1177.09 791.689C1151.16 800.696 1121.4 856.845 1108.94 880.886Q1092.61 911.235 1076.61 941.76C1065.85 962.734 1056.1 984.878 1041.79 1003.73C1027.98 1002.98 1012.34 1001.41 1001.94 991.281C994.9 984.432 991.636 975.375 991.207 965.695C989.775 933.413 1015.94 883.211 1027.63 852.22C1034.75 833.324 1042.32 810.006 1041.84 789.62C1041.6 779.598 1038.95 770.205 1031.3 763.276C1017.21 750.515 995.903 753.802 978.454 754.63C982.317 769.541 986.144 784.576 985.247 800.111C981.668 862.064 941.097 920.068 895.756 959.897C871.347 981.339 838.111 1004.39 804.164 1002.03C792.398 1001.21 781.759 996.42 774.152 987.248C763.68 974.62 759.778 956.553 761.493 940.515C767.337 885.835 807.609 834.802 847.903 799.918C865.539 784.65 884.828 771.583 902.873 756.865C895.05 754.507 887.079 753.577 878.935 754.334C850.675 756.961 824.158 784.213 806.731 804.503C790.398 823.52 774.795 842.898 761.255 864.035C716.461 933.961 691.566 1018.71 665.737 1097.05C655.35 1128.56 640.992 1181.57 620.235 1206.95C610.816 1206.62 601.385 1205.13 592.774 1201.13C579.755 1195.07 570.259 1183.46 569.605 1168.76C568.509 1144.13 592.496 1089.82 602.467 1064.92C631.706 991.889 709.801 807.121 702.051 737.387C701.53 732.707 699.363 728.664 697.968 724.24C697.219 721.868 696.436 720.364 697.644 718.161L701.045 717.264ZM914.307 783.326C861.732 814.609 808.472 871.29 792.833 931.754C790.677 940.088 789.818 949.645 794.447 957.328C795.192 958.566 796.012 959.728 796.96 960.819C801.516 964.061 805.7 964.569 811.2 963.553C834.265 959.292 863.295 918.018 875.821 898.577C894.547 869.511 907.403 838.353 912.742 804.049C913.74 797.64 915.225 790.872 915.211 784.382L914.307 783.326Z"/>
</svg>
