<?xml version="1.0" encoding="utf-8" ?>
<svg xmlns="http://www.w3.org/2000/svg" xmlns:xlink="http://www.w3.org/1999/xlink" width="1616" height="1024">
	<path fill="#B04947" d="M442.394 31.8957C451.675 30.5034 462.504 32.0755 471.635 34.0064C501.069 40.231 522.184 54.6652 538.485 79.8081C524.062 82.1481 509.473 83.4874 495.097 86.097C468.211 90.9778 442.687 99.6198 417.757 110.678C341.351 144.569 273.842 205.032 224.649 272.042C215.291 284.79 207.22 298.093 198.815 311.45C188.761 327.43 177.535 342.066 170.686 359.838C217.336 322.774 267.123 289.925 327.789 282.728C357.063 279.255 389.036 284.207 412.596 303.07C434.709 320.774 444.915 348.497 447.936 375.917C456.173 450.687 414.042 523.859 369.13 580.084C368.964 580.299 368.801 580.518 368.631 580.73C324.868 635.036 255.374 688.793 183.964 694.911C149.022 697.905 112.063 687.376 85.1632 664.612C51.4166 636.053 37.4558 595.317 33.871 552.303C23.0393 422.332 88.5156 286.906 170.794 189.825C242.587 105.117 328.01 41.333 442.394 31.8957ZM306.989 331.656C262.781 334.909 226.922 362.175 198.762 394.766C156.677 443.473 118.513 520.059 123.326 585.886C124.659 604.118 130.726 624.095 145.048 636.288C151.319 641.627 158.312 644.534 166.406 645.795C202.165 644.199 235.144 617.901 258.224 592.627C302.256 544.406 351.458 453.578 348.333 387.332C347.581 371.391 343.721 351.54 331.487 340.392C324.492 334.019 316.199 332.135 306.989 331.656Z"/>
	<path fill="#B04947" d="M534.786 279.279C554.816 278.618 580.444 285.807 596.493 297.849C619.32 314.977 632.258 353.471 631.075 381.535C630.612 392.51 626.62 402.225 628.149 413.403C639.846 404.019 652.448 385.028 663.885 373.318C707.619 328.541 766.959 291.062 830.051 283.439C861.062 279.692 890.356 280.565 915.818 300.54C926.065 298.61 936.105 295.05 946.149 292.249C963.946 287.286 982.202 283.342 1000.66 282.033C1032.78 279.755 1065.56 286.687 1090.37 308.271C1115.41 330.056 1125.17 362.91 1127.3 395.064C1127.97 405.181 1127.93 446.136 1122.3 452.545C1132.07 448.134 1147.78 420.716 1154.96 410.908Q1162.45 400.853 1170.65 391.366C1195.56 362.609 1229.27 338.032 1268.46 335.374C1283.22 334.372 1296.94 337.272 1308.26 347.262C1325.37 362.359 1333.64 390.977 1334.98 413.144C1335.57 423.004 1334.1 453.268 1328.09 460.088C1328.32 459.935 1328.54 459.779 1328.76 459.63C1339.84 452.342 1347.69 435.365 1354.57 424.144C1382.4 378.778 1412.92 325.99 1460.73 299.251C1482.47 287.093 1510.91 278.25 1535.67 285.503Q1537.16 285.952 1538.63 286.475Q1540.11 286.998 1541.55 287.594Q1542.99 288.189 1544.4 288.856Q1545.81 289.522 1547.19 290.258Q1548.56 290.994 1549.9 291.797Q1551.24 292.601 1552.54 293.469Q1553.83 294.338 1555.08 295.27Q1556.34 296.202 1557.54 297.196Q1558.74 298.189 1559.9 299.241Q1561.05 300.292 1562.15 301.4Q1563.25 302.508 1564.29 303.669Q1565.33 304.83 1566.32 306.042Q1567.3 307.253 1568.22 308.512Q1569.14 309.771 1570 311.074Q1570.86 312.377 1571.65 313.721Q1572.45 315.065 1573.17 316.447C1595.4 358.329 1575.25 416.053 1562.04 457.742C1554.04 483.001 1545.23 507.989 1537.05 533.188C1526.63 565.279 1516.89 598.205 1511.78 631.621C1508.51 653.017 1505.78 677.994 1510.16 699.443C1512.12 709.079 1527.65 740.84 1526 746.276C1513.83 746.444 1501.67 746.105 1489.64 744.197C1466.72 740.565 1443.83 730.556 1429.99 711.196C1419 695.819 1413.38 676.054 1413.48 657.242C1413.6 634.054 1421.18 610.288 1427.23 588.073C1440.1 540.748 1456.02 494.4 1470.49 447.56C1478.67 421.105 1487.72 394.328 1492.11 366.947C1493.44 358.635 1495.44 345.575 1489.85 338.482C1488.21 336.403 1485.89 335.229 1483.24 335.143C1449.54 334.038 1390.6 448.62 1374.62 476.707Q1355.51 510.515 1335.27 543.66C1319.39 569.332 1302.62 595.478 1280.29 616.07C1269.76 625.771 1255.94 635.743 1240.94 634.936C1233.72 634.547 1227.5 631.056 1222.77 625.674C1189.06 587.342 1247.9 457.671 1251.22 408.727C1251.62 402.942 1251.83 392.805 1247.39 388.311C1245.93 386.828 1243.86 386.175 1241.8 386.304C1214.21 388.024 1178.07 447.023 1164.81 469.263C1157.47 481.585 1151.35 495.088 1142.03 506.066C1142.2 506.659 1142.25 506.69 1142.21 507.408C1142.06 510.114 1065.67 653.348 1057.59 666.752C1052.44 675.287 1045.44 688.107 1037.22 693.95C1032.81 697.079 1025.89 696.952 1020.79 696.268C1004.09 694.027 984.499 685.29 974.362 671.618C965.709 659.947 963.985 644.071 965.532 630.008C968.223 605.564 978.028 581.563 986.827 558.754C1005.36 510.712 1031.5 454.936 1038.62 403.834C1041.15 385.617 1040.25 366.525 1028.49 351.382C1018.38 338.376 999.222 334.005 983.648 332.145C974.837 331.092 955.896 329.309 949.066 335.479C947.621 336.785 946.573 338.141 946.665 340.158C946.912 345.567 949.445 352.302 950.738 357.686C953.902 370.865 955.649 383.29 955.313 396.891C953.284 478.955 896.17 565.394 837.888 620.949C804.347 652.922 747.135 697.153 698.114 695.652C679.615 695.086 660.398 687.856 647.676 674.125C632.909 658.189 628.382 636.183 629.186 615.065C632.478 528.708 707.244 441.224 770.966 387.812C777.893 382.006 784.815 375.958 792.21 370.757C803.018 363.155 815.669 356.09 825.263 347.007C827.557 344.834 829.649 342.301 829.726 339.008C828.956 337.339 828.71 336.655 827.101 335.621C818.989 330.41 802.496 332.62 793.641 334.649C748.379 345.018 706.178 387.934 678.021 423.106Q670.66 432.314 663.568 441.73Q656.476 451.146 649.657 460.762Q642.839 470.378 636.3 480.187Q629.762 489.995 623.509 499.988Q617.255 509.981 611.292 520.149Q605.329 530.318 599.662 540.654Q593.994 550.99 588.627 561.485Q583.259 571.98 578.196 582.625C539.144 665.409 513 754.52 483.797 841.146C473.132 872.782 462.705 904.481 450.45 935.551C443.417 953.38 436.305 971.409 426.042 987.667C421.756 989.17 417.396 990.151 412.855 990.457C396.804 991.538 379.551 986.005 367.415 975.375C352.113 961.972 347.76 945.375 350.15 925.736C353.834 895.464 367.162 865.655 377.873 837.253L401.338 774.537C431.327 696.519 463.135 619.195 490.651 540.246C508.906 487.87 525.878 435.046 536.269 380.472C540.31 359.245 544.469 335.697 541.004 314.114C539.121 302.39 535.596 291.197 534.786 279.279ZM847.246 380.177C829.746 387.424 815.108 399.342 800.668 411.371C752.074 451.852 706.678 503.414 682.221 562.192C674.473 580.812 665.273 607.87 673.393 627.591C675.155 631.872 677.399 634.736 680.842 637.784C689.438 641.681 696.909 642.005 705.827 638.725C717.288 634.511 727.287 625.987 736.294 617.965C775.093 583.409 805.186 537.762 826.481 490.541C838.988 462.807 846.13 434.719 850.793 404.797C851.756 398.614 854.233 388.727 851.674 382.86C851.224 381.828 850.497 381.261 849.638 380.58L847.246 380.177Z"/>
</svg>
