<?xml version="1.0" encoding="utf-8" ?>
<svg xmlns="http://www.w3.org/2000/svg" xmlns:xlink="http://www.w3.org/1999/xlink" width="3840" height="2272">
	<path fill="#FEFEFE" d="M0 0L3840 0L3840 944.24L3840 985.06L3840 2272L0 2272L0 1203.41L0 1116.19L0 0Z"/>
	<path fill="#FEFEFE" d="M3681.64 920.962C3692 906.716 3708.3 890.755 3733.57 884.449C3745.87 881.377 3759.11 881.482 3771.25 884.762C3808.62 894.853 3825.53 921.913 3837.33 943.25C3837.47 943.507 3837.59 943.769 3837.73 944.028L3840 944.24L3840 985.06L3838.48 985.114L3836.23 991.009C3834.55 1002.8 3819.45 1030.96 3804.25 1038.66C3797.14 1044.33 3786.45 1049.58 3775.75 1052.67C3761.71 1056.73 3745.87 1057.19 3731.34 1053.75C3705.22 1047.58 3690.81 1033 3680.58 1018.43C3663.29 982.954 3659.09 956.09 3681.64 920.962Z"/>
	<path fill="#0B97D6" d="M3734.5 926.011C3744.12 924.293 3752.92 923.759 3762.01 926.843C3765.03 927.866 3769 929.311 3771.41 930.806C3779.38 936.168 3781.86 942.282 3781.27 949.359C3780.81 954.725 3778.55 959.72 3776.11 964.852L3774.4 964.711C3769.29 960.554 3771.11 946.909 3770.88 941.54L3768.18 940.093L3765.61 941.832L3759.39 940.35C3755.07 939.486 3752.17 938.232 3748.45 936.728C3742.74 933.417 3738.78 929.994 3734.5 926.011Z"/>
	<path fill="#0AA2CC" d="M3759.39 940.35L3765.61 941.832L3768.18 940.093L3770.88 941.54C3771.11 946.909 3769.29 960.554 3774.4 964.711L3776.11 964.852C3773.62 986.454 3785.11 1007.98 3781.02 1029.34C3762.61 1010.09 3763.96 985.773 3748.41 971.682L3755.69 970.017C3762.6 960.509 3762.91 950.373 3759.39 940.35Z"/>
	<defs>
		<linearGradient id="gradient_0" gradientUnits="userSpaceOnUse" x1="3723.959" y1="976.4967" x2="3739.2039" y2="975.90479">
			<stop offset="0" stop-color="#0389CC"/>
			<stop offset="1" stop-color="#10A5E0"/>
		</linearGradient>
	</defs>
	<path fill="url(#gradient_0)" d="M3748.41 971.682C3730.12 979.692 3746.4 1010.73 3729.29 1020.19L3727.03 1018.9C3720.79 1002.94 3718.05 950.245 3723.89 934.52C3725.55 930.069 3728.17 928.479 3734.5 926.011C3738.78 929.994 3742.74 933.417 3748.45 936.728C3752.17 938.232 3755.07 939.486 3759.39 940.35C3762.91 950.373 3762.6 960.509 3755.69 970.017L3748.41 971.682Z"/>
	<path fill="#FEFEFE" d="M3748.45 936.728C3752.17 938.232 3755.07 939.486 3759.39 940.35C3762.91 950.373 3762.6 960.509 3755.69 970.017C3750.75 968.582 3747.01 966.667 3744.27 963.845C3738.41 957.827 3735.23 948.413 3739.43 941.695C3741.4 938.555 3743.46 937.994 3748.45 936.728Z"/>
	<path fill="#0B97D6" d="M3693.19 924.024C3695 924.334 3696.94 924.531 3698.54 925.13C3679.46 956.243 3671.84 982.425 3696.49 1013.54C3704.74 1023.95 3718.82 1034.65 3737.76 1038.57Q3742.21 1039.47 3746.75 1040.19C3761.77 1039.18 3770.79 1037.8 3782.74 1032.01C3811.78 1017.93 3821.1 991.481 3823.99 970.387C3824.32 970.097 3824.73 969.832 3824.98 969.517C3828.01 965.791 3825.4 958.536 3824.26 954.499L3825.83 952.68C3832.79 956.063 3833.48 969.05 3834.32 974.239Q3835.54 982.613 3836.23 991.009C3834.55 1002.8 3819.45 1030.96 3804.25 1038.66C3797.14 1044.33 3786.45 1049.58 3775.75 1052.67C3761.71 1056.73 3745.87 1057.19 3731.34 1053.75C3705.22 1047.58 3690.81 1033 3680.58 1018.43L3682.93 1016L3685.03 1016.59C3689.18 1021.14 3692.81 1024.72 3699.08 1028.41C3699.58 1028.71 3700.1 1029 3700.61 1029.29Q3697.89 1026.27 3695.54 1023.14C3669.11 987.971 3670.07 959.609 3693.19 924.024Z"/>
	<path fill="#0AA2CC" d="M3681.64 920.962C3692 906.716 3708.3 890.755 3733.57 884.449C3745.87 881.377 3759.11 881.482 3771.25 884.762C3808.62 894.853 3825.53 921.913 3837.33 943.25C3837.47 943.507 3837.59 943.769 3837.73 944.028L3840 944.24L3840 985.06L3838.48 985.114L3836.23 991.009Q3835.54 982.613 3834.32 974.239C3833.48 969.05 3832.79 956.063 3825.83 952.68L3824.26 954.499C3825.4 958.536 3828.01 965.791 3824.98 969.517C3824.73 969.832 3824.32 970.097 3823.99 970.387C3823.42 965.86 3823.52 961.229 3822.22 956.747C3817.1 939.11 3801.01 914.537 3775.1 904.305C3765.77 900.62 3754.99 898.872 3743.91 900.503C3723.5 903.506 3708.7 914.94 3698.54 925.13C3696.94 924.531 3695 924.334 3693.19 924.024C3670.07 959.609 3669.11 987.971 3695.54 1023.14Q3697.89 1026.27 3700.61 1029.29C3700.1 1029 3699.58 1028.71 3699.08 1028.41C3692.81 1024.72 3689.18 1021.14 3685.03 1016.59L3682.93 1016L3680.58 1018.43C3663.29 982.954 3659.09 956.09 3681.64 920.962Z"/>
	<path fill="#0B97D6" d="M3837.73 944.028L3840 944.24L3840 985.06L3838.48 985.114C3835.9 971.829 3836.84 957.393 3837.73 944.028Z"/>
	<path fill="#0AA2CC" d="M3111.02 654.635C3153.29 654.303 3196.52 654.405 3238.72 655.837C3236.83 677.871 3223.1 703.242 3215.47 725.159C3194.02 786.797 3169.64 848.615 3151.5 910.588C3150.56 913.613 3149.77 918.198 3146.41 920.581C3142.09 923.648 3055.44 922.837 3042.43 922.884C3045.48 896.624 3054.56 869.973 3060.74 843.888Q3075.47 781.007 3091.4 718.227C3095.49 701.99 3099.91 668.659 3111.02 654.635Z"/>
	<path fill="#0AA2CC" d="M2937.98 868.984C2950.58 868.561 2963.39 867.314 2974.79 871.157C2986.2 878.496 2980.67 984.318 2980.15 1001.08C2968.23 1000.61 2956.3 1000.08 2944.36 999.695C2903.96 998.392 2868.22 1011.65 2839.43 1027.2C2808.74 1043.77 2787.62 1063.79 2777.56 1087.74C2763.42 1121.4 2767.97 1182.63 2767.9 1219.06C2767.78 1290.45 2770.08 1362.14 2764.9 1433.46C2720.39 1437.16 2673.67 1435.87 2628.8 1435.39L2627.66 1361.48L2626.69 1038.37C2626.44 986.045 2622.77 933.449 2624.72 881.154C2663.53 880.621 2704.07 878.533 2742.73 880.397C2747.36 903.829 2745.94 928.477 2747.09 952.099C2747.56 961.777 2746.04 973.473 2751 982.644L2752.78 982.546C2759.96 975.304 2763.48 966.413 2768.3 958.505C2774.78 947.864 2783.86 937.409 2794.39 927.972C2825.73 899.886 2882.05 875.879 2937.98 868.984Z"/>
	<path fill="#0AA2CC" d="M1449.52 867.953C1459.51 867.535 1469.23 867.979 1479.18 868.408C1482.6 911.868 1481 955.682 1481.2 999.193C1420.58 1001.78 1386.43 1000.98 1338.99 1027.22Q1336.2 1028.75 1333.5 1030.34Q1330.81 1031.93 1328.21 1033.58Q1325.62 1035.22 1323.12 1036.92Q1320.63 1038.62 1318.24 1040.38Q1315.86 1042.13 1313.58 1043.93Q1311.3 1045.74 1309.13 1047.59Q1306.96 1049.44 1304.91 1051.33Q1302.86 1053.23 1300.92 1055.17Q1298.99 1057.1 1297.17 1059.08Q1295.35 1061.06 1293.66 1063.08Q1291.97 1065.09 1290.4 1067.15Q1288.83 1069.2 1287.39 1071.28Q1285.94 1073.36 1284.63 1075.48Q1283.31 1077.59 1282.13 1079.73Q1280.95 1081.87 1279.89 1084.03Q1278.84 1086.2 1277.92 1088.38C1263.07 1124.09 1268.92 1181.19 1268.87 1219.09C1268.78 1290.52 1270.62 1362.18 1267.02 1433.58C1221.78 1436.27 1174.16 1435.96 1128.7 1435.18L1127.85 1345.39L1127.26 1035.71C1126.8 984.049 1122.16 931.936 1124.9 880.35C1163.76 879.219 1206 878.538 1244.73 880.506C1247.61 916.453 1244 952.669 1248.39 988.551C1268.98 965.633 1274.24 942.331 1303.15 920.722C1337.58 894.977 1393.56 871.726 1449.52 867.953Z"/>
	<path fill="#0AA2CC" d="M1665.07 727.338C1709.84 726.989 1755.33 728.075 1800.06 729.271C1801.85 779.409 1800.03 829.76 1799.99 879.928C1847.67 881.501 1896.3 881.767 1944.04 881.109L1942.29 985.85C1895.42 987.503 1848.04 987.129 1801.08 987.448C1799.09 999.537 1799.99 1012.11 1799.85 1024.28L1799.37 1092.67C1799.14 1149.15 1795.96 1206.81 1801.81 1263.14C1803.79 1282.16 1808.29 1312.67 1835.52 1325.74C1856.6 1335.85 1921.7 1330.19 1948.43 1328.09L1948.96 1427.65C1948.71 1428.97 1948.93 1430.3 1947.52 1431.41C1934.85 1441.34 1871.12 1447.12 1850.34 1448.16C1810.89 1450.13 1776.67 1444.09 1746.35 1428.78C1712.1 1411.47 1692.33 1385.73 1681.47 1360.3C1663.22 1317.6 1664.7 1271.8 1664.17 1228.08L1663.24 1071.33C1663.19 1043.35 1665.51 1014.68 1662.03 986.805C1625.81 985.994 1589.1 987.984 1552.72 987.522C1552.12 952.857 1551.72 917.986 1553.14 883.333C1589.81 881.722 1626.65 881.646 1663.28 879.708C1665.86 828.974 1662.28 778.106 1665.07 727.338Z"/>
	<path fill="#0AA2CC" d="M0 1116.19C0.206629 1115.8 0.422867 1115.41 0.619887 1115.02C9.94704 1096.6 10.7496 1075.76 17.503 1056.8C40.7025 991.675 92.1589 919.778 195.527 886.337C237.998 872.597 296.178 864.058 343.751 872.466C396.717 881.827 467.333 926.537 493.565 954.943C480.711 972.221 461.281 988.442 444.334 1004.43C428.989 1018.9 414.342 1033.98 397.464 1047.84C370.807 1025.41 339.159 1000.91 290.685 995.343C267.257 992.654 244.752 995.984 225.36 1004.08C179.315 1023.32 159.142 1059.64 150.383 1091.07C133.602 1151.28 135.882 1241.29 197.216 1291.67C218.299 1308.98 252.537 1324.44 288.866 1327.9C310.455 1329.95 328.934 1326.08 346.171 1318.49C368.901 1308.48 384.99 1294.96 399.867 1280.91C414.906 1295.31 427.597 1310.46 442.327 1324.96C458.536 1340.9 480.835 1357.39 491.804 1374.77C457.45 1407.26 392.563 1435.42 329.202 1444.03C273.896 1451.54 212.795 1440.28 166.025 1422.68C82.2116 1391.15 38.0403 1326.18 17.8215 1270.66C9.80306 1248.64 9.81454 1224.91 0 1203.41L0 1116.19Z"/>
	<path fill="#0AA2CC" d="M3405.63 869.016Q3409.12 868.774 3412.63 868.643Q3416.13 868.512 3419.65 868.491Q3423.16 868.471 3426.67 868.562Q3430.18 868.652 3433.68 868.854Q3437.18 869.055 3440.65 869.366Q3444.12 869.677 3447.57 870.098Q3451.01 870.519 3454.41 871.047Q3457.8 871.576 3461.15 872.211C3517.16 883.092 3571.94 921.994 3598.08 952.263C3575.16 978.379 3543.7 1005.86 3514.59 1029.8Q3505.58 1023.14 3496.32 1016.59C3470.81 998.675 3442.78 982.383 3401.22 980.766C3386.46 980.191 3371.08 981.797 3359.81 987.845C3343.55 996.571 3335.97 1009.47 3335.27 1022.19C3332.57 1071.48 3413.93 1090.89 3472.85 1113.13C3494.94 1121.47 3515.53 1130.95 3533.6 1142.2C3590.53 1177.62 3614.94 1227.61 3612.46 1275.86C3609.98 1323.95 3584.33 1377.35 3523.05 1410.93C3476.88 1436.23 3414.63 1447.78 3352.44 1446.5C3343.86 1445.84 3335.39 1445.07 3326.98 1443.84C3258.33 1433.78 3204.21 1400.76 3168.54 1366.05C3181.26 1350.04 3199.12 1335.53 3214.86 1320.55C3227.05 1308.95 3237.68 1296.93 3249.52 1285.25C3265.34 1301.64 3284.58 1316.29 3309.36 1328.32C3332.41 1339.5 3359.75 1346.19 3390.03 1344.02C3409.3 1342.64 3426.58 1334.48 3437.83 1325.51C3458.61 1308.96 3461.68 1288.2 3456.76 1268.36C3445.49 1222.92 3357.2 1206.81 3302.75 1182.44C3237.4 1153.19 3199.05 1114.24 3187.88 1066.14C3176.72 1018.11 3197.45 959.691 3247.73 920.806C3288.1 889.578 3340.51 874.008 3405.63 869.016Z"/>
	<path fill="#0AA2CC" d="M788.883 868.017C838.549 867.631 893.89 878.624 930.852 898.565C978.328 924.178 1002.05 960.934 1014.98 997.323C1034.94 1053.53 1029.32 1114.62 1029.59 1171.84C1029.99 1258.85 1027.93 1346.11 1035.38 1433.03C993.323 1436.54 949.431 1436.38 907.028 1435.54C903.469 1417.33 905.141 1394.22 896.661 1377.01C895.973 1375.62 896.55 1376.24 893.715 1375.34C878.74 1380.4 871.257 1395.86 860.657 1404.09C845.744 1415.66 825.117 1425.79 803.762 1432.94C769.422 1444.43 730.549 1450.89 691.678 1444.29C643.498 1436.1 610.059 1415.52 586.447 1390.23C570.73 1372.37 560.384 1353.19 553.575 1333.47C533.522 1275.4 545.595 1201.19 601.92 1151C648.171 1109.79 722.191 1085.92 803.172 1077.12C829.746 1074.23 856.939 1073.77 883.388 1070.57L886.138 1070.23C884.02 1043.35 877.326 1009.18 844.147 988.769Q842.604 987.815 840.983 986.908Q839.362 986.001 837.667 985.143Q835.973 984.284 834.208 983.476Q832.443 982.668 830.613 981.913Q828.783 981.158 826.892 980.458Q825.001 979.757 823.054 979.113Q821.106 978.469 819.107 977.882Q817.108 977.296 815.063 976.769Q813.017 976.241 810.93 975.775Q808.843 975.308 806.719 974.904Q804.596 974.499 802.441 974.157Q800.286 973.815 798.105 973.536Q795.924 973.258 793.722 973.044Q791.521 972.829 789.304 972.68Q787.087 972.531 784.861 972.446Q782.634 972.362 780.403 972.343C715.045 971.834 674.346 1004.79 632.248 1029.02C621.83 1016.16 577.814 970.336 576.03 960.655C573.955 949.396 604.163 930.013 615.969 921.909C662.498 889.972 717.287 871.084 788.883 868.017Z"/>
	<path fill="#FEFEFE" d="M842.355 1186.55Q848.525 1186.26 854.704 1186.06C864.643 1185.75 878.111 1184.67 886 1188.86C889.647 1196.58 888.04 1206 888.04 1214.04C888.039 1244.71 887.142 1273.54 865.202 1302.1C851.702 1319.66 827.23 1336.74 795.6 1343.25C776.424 1347.2 757.157 1346.3 738.873 1341.34C738.062 1340.97 737.24 1340.61 736.439 1340.24C706.004 1325.95 692.914 1303.67 689.277 1281.51C685.216 1256.78 690.702 1227.27 719.222 1207.73C748.414 1187.72 801.239 1187.87 842.355 1186.55Z"/>
	<path fill="#0AA2CC" d="M2527.88 1335.4C2516.67 1359.01 2488.21 1383.87 2461.71 1402.44Q2460.04 1403.61 2458.31 1404.75Q2456.59 1405.9 2454.82 1407.02Q2453.05 1408.14 2451.23 1409.23Q2449.42 1410.32 2447.56 1411.39Q2445.7 1412.46 2443.79 1413.49Q2441.89 1414.53 2439.94 1415.54Q2437.99 1416.56 2436.01 1417.54Q2434.02 1418.52 2431.99 1419.47Q2429.96 1420.43 2427.89 1421.35Q2425.83 1422.28 2423.72 1423.17Q2421.62 1424.06 2419.48 1424.92Q2417.34 1425.79 2415.16 1426.62Q2412.98 1427.45 2410.77 1428.25Q2408.56 1429.05 2406.32 1429.82Q2404.08 1430.58 2401.8 1431.32Q2399.53 1432.05 2397.23 1432.75Q2394.92 1433.45 2392.59 1434.12Q2390.26 1434.79 2387.9 1435.42Q2385.54 1436.06 2383.16 1436.66Q2380.77 1437.25 2378.36 1437.82Q2375.96 1438.38 2373.52 1438.91Q2371.09 1439.44 2368.64 1439.94Q2366.19 1440.43 2363.72 1440.89Q2361.24 1441.34 2358.75 1441.77Q2356.26 1442.19 2353.76 1442.57Q2351.25 1442.96 2348.73 1443.31Q2346.21 1443.66 2343.67 1443.97Q2341.13 1444.28 2338.58 1444.56Q2336.04 1444.84 2333.48 1445.07Q2330.92 1445.31 2328.35 1445.51Q2325.78 1445.72 2323.21 1445.88Q2320.63 1446.04 2318.05 1446.17C2255.37 1448.95 2180.76 1433.77 2133.68 1409.27C2036.64 1358.76 2002.17 1274.58 1994.17 1201.03C1984.13 1108.74 2012.83 988.046 2119.65 916.671C2162.58 887.983 2216.12 870.832 2281.35 868.863C2333.01 867.303 2382.04 878.347 2420.17 898.871C2515.27 950.052 2542.35 1045.02 2547.62 1117.92C2549.62 1144.22 2549.38 1170.6 2542.86 1196.7C2454.53 1199.88 2365.11 1198.05 2276.63 1197.81C2234.19 1197.69 2182.72 1200.73 2141.69 1195.99C2140.34 1197.18 2140.24 1197.14 2139.29 1198.7C2131.54 1211.33 2159.66 1268.8 2168.46 1281.72C2184.62 1305.45 2211.48 1326.81 2252.39 1336.81C2279.99 1343.55 2309.42 1344.12 2337.22 1337.26C2387.89 1324.75 2408.16 1300.12 2427.56 1271.77C2457.23 1294.59 2496.86 1313.19 2527.88 1335.4Z"/>
	<path fill="#0B97D6" d="M2547.62 1117.92C2549.62 1144.22 2549.38 1170.6 2542.86 1196.7C2454.53 1199.88 2365.11 1198.05 2276.63 1197.81C2234.19 1197.69 2182.72 1200.73 2141.69 1195.99C2141.97 1194.88 2143.47 1193.76 2144.42 1192.79C2162.84 1191.78 2181.82 1193.32 2200.35 1192.55C2214.37 1191.96 2229.24 1192.83 2243.37 1192.86L2318.92 1192.6C2358.11 1192.68 2397.52 1191.39 2436.66 1191.51C2452.57 1191.57 2517.48 1195.65 2527.14 1191.39C2527.76 1189.4 2527.97 1188.32 2529.88 1186.6Q2530.86 1189.24 2531.69 1191.9L2534.96 1191.83C2546.44 1174.53 2542.35 1138.75 2547.32 1119.03L2547.62 1117.92Z"/>
	<path fill="#FEFEFE" d="M2266.53 965.514C2272.47 965.124 2278.7 964.908 2284.7 965.025C2309.1 965.5 2331.8 972.697 2348.26 983.125C2389.07 1008.97 2406.37 1062.2 2404.63 1096.68C2364.17 1100.72 2318.72 1098.5 2277.66 1098.47C2248.89 1098.46 2167.78 1100.87 2144.2 1096.64C2141.81 1095.2 2140.92 1094.03 2140.4 1092.07C2138.33 1084.13 2142.51 1074.85 2145.29 1067.11C2154.63 1041.05 2167 1016.69 2193.16 994.71C2212.13 978.778 2233.38 969.012 2266.53 965.514Z"/>
</svg>
